<?xml version="1.0" encoding="utf-8"?>
<!-- Generator: Adobe Illustrator 19.1.0, SVG Export Plug-In . SVG Version: 6.00 Build 0)  -->
<svg version="1.1" id="Layer_1" xmlns="http://www.w3.org/2000/svg" xmlns:xlink="http://www.w3.org/1999/xlink" x="0px" y="0px"
	 viewBox="0 0 800 600" style="enable-background:new 0 0 800 600;" xml:space="preserve">
<style type="text/css">
	.st0{fill:#333333;}
	.st1{fill:#FFD153;}
	.st2{fill:none;stroke:#333333;stroke-width:2;stroke-linecap:round;stroke-linejoin:round;stroke-miterlimit:10;}
	.st3{fill:none;stroke:#333333;stroke-linecap:round;stroke-linejoin:round;stroke-miterlimit:10;}
	.st4{fill:none;stroke:#333333;stroke-width:2;stroke-linejoin:round;stroke-miterlimit:10;}
	.st5{fill:#FFD153;stroke:#333333;stroke-width:2;stroke-linejoin:round;stroke-miterlimit:10;}
	.st6{fill:none;stroke:#333333;stroke-linejoin:round;stroke-miterlimit:10;}
</style>
<g>
	<g id="cup_6_">
		<g>
			<path class="st0" d="M223.5,162.8c-5.9,0-12.2-1.4-12.2-4.6c0-3.1,6.3-4.6,12.2-4.6s12.2,1.4,12.2,4.6
				C235.7,161.4,229.3,162.8,223.5,162.8z M223.5,155.7c-6.7,0-10.2,1.8-10.2,2.6s3.5,2.6,10.2,2.6s10.2-1.8,10.2-2.6
				S230.2,155.7,223.5,155.7z"/>
		</g>
		<g>
			<path class="st0" d="M223.5,180.1c-5.9,0-12.2-1.4-12.2-4.6v-17.3h2v17.3c0,0.8,3.5,2.6,10.2,2.6s10.2-1.8,10.2-2.6v-17.3h2v17.3
				C235.7,178.7,229.3,180.1,223.5,180.1z"/>
		</g>
		<g>
			<line class="st1" x1="230.8" y1="164" x2="230.8" y2="172.5"/>
			<path class="st0" d="M230.8,173.5c-0.6,0-1-0.4-1-1V164c0-0.6,0.4-1,1-1s1,0.4,1,1v8.5C231.8,173.1,231.3,173.5,230.8,173.5z"/>
		</g>
		<g>
			<path class="st0" d="M236.5,174.7c-0.8,0-1.5-0.1-2.2-0.4l0.7-1.9c0.5,0.2,1,0.3,1.5,0.3c2.5,0,4.5-2.2,4.5-4.9
				c0-2.7-2-4.9-4.5-4.9c-0.5,0-0.9,0.1-1.4,0.2l-0.7-1.9c0.7-0.2,1.4-0.4,2.1-0.4c3.6,0,6.5,3.1,6.5,6.9
				C243,171.6,240.1,174.7,236.5,174.7z"/>
		</g>
	</g>
</g>
<g>
	<g id="glas_bubles_13_">
		<g>
			<path class="st0" d="M314.9,154.8c-5.9,0-12.2-1.4-12.2-4.6s6.3-4.6,12.2-4.6s12.2,1.4,12.2,4.6S320.8,154.8,314.9,154.8z
				 M314.9,147.7c-6.7,0-10.2,1.8-10.2,2.6s3.5,2.6,10.2,2.6s10.2-1.8,10.2-2.6S321.6,147.7,314.9,147.7z"/>
		</g>
		<g>
			<path class="st0" d="M314.9,188.1c-4.4,0-9.2-1.1-9.2-3.6h2c0.2,0.4,2.6,1.6,7.2,1.6s7.1-1.2,7.2-1.7l2,0
				C324.1,187,319.3,188.1,314.9,188.1z"/>
		</g>
		<g>
			<path class="st0" d="M306.7,185.5c-0.5,0-0.9-0.4-1-0.9l-3-33.3c0-0.6,0.4-1,0.9-1.1c0.6,0,1,0.4,1.1,0.9l3,33.3
				C307.7,185,307.3,185.5,306.7,185.5C306.7,185.5,306.7,185.5,306.7,185.5z"/>
		</g>
		<g>
			<path class="st0" d="M323.1,185.5C323.1,185.5,323,185.5,323.1,185.5c-0.6-0.1-1-0.5-1-1.1l3-33.3c0-0.5,0.5-1,1.1-0.9
				c0.5,0,1,0.5,0.9,1.1l-3,33.3C324,185.1,323.6,185.5,323.1,185.5z"/>
		</g>
		<g>
			<path class="st0" d="M319.4,183.9C319.4,183.9,319.3,183.9,319.4,183.9c-0.6,0-1-0.5-1-1.1l3.3-42.4c0-0.6,0.5-1,1.1-0.9
				c0.6,0,1,0.5,0.9,1.1l-3.3,42.4C320.3,183.5,319.9,183.9,319.4,183.9z"/>
		</g>
		<g>
			<path class="st0" d="M316.2,165.5c-1,0-1.8-0.8-1.8-1.8s0.8-1.8,1.8-1.8s1.8,0.8,1.8,1.8S317.2,165.5,316.2,165.5z M316.2,163.5
				c-0.1,0-0.2,0.1-0.2,0.2c0,0.2,0.3,0.2,0.3,0C316.4,163.6,316.3,163.5,316.2,163.5z"/>
		</g>
		<g>
			<path class="st0" d="M310.8,165.5c-1,0-1.8-0.8-1.8-1.8s0.8-1.8,1.8-1.8s1.8,0.8,1.8,1.8S311.8,165.5,310.8,165.5z M310.8,163.5
				c-0.1,0-0.2,0.1-0.2,0.2c0,0.2,0.3,0.2,0.3,0C310.9,163.6,310.9,163.5,310.8,163.5z"/>
		</g>
		<g>
			<path class="st0" d="M314.1,176.9c-1,0-1.8-0.8-1.8-1.8s0.8-1.8,1.8-1.8s1.8,0.8,1.8,1.8S315.1,176.9,314.1,176.9z M314.1,174.9
				c-0.1,0-0.2,0.1-0.2,0.2c0,0.2,0.3,0.2,0.3,0C314.2,174.9,314.2,174.9,314.1,174.9z"/>
		</g>
		<g>
			<path class="st0" d="M311.3,172c-1,0-1.8-0.8-1.8-1.8s0.8-1.8,1.8-1.8s1.8,0.8,1.8,1.8S312.3,172,311.3,172z M311.3,170
				c-0.1,0-0.2,0.1-0.2,0.2c0,0.2,0.3,0.2,0.3,0C311.4,170.1,311.4,170,311.3,170z"/>
		</g>
		<g>
			<path class="st0" d="M313.4,159.1c-1,0-1.8-0.8-1.8-1.8s0.8-1.8,1.8-1.8s1.8,0.8,1.8,1.8S314.4,159.1,313.4,159.1z M313.4,157.1
				c-0.1,0-0.2,0.1-0.2,0.2c0,0.2,0.3,0.2,0.3,0C313.5,157.2,313.5,157.1,313.4,157.1z"/>
		</g>
		<g>
			<path class="st0" d="M310.8,182.7c-1,0-1.8-0.8-1.8-1.8s0.8-1.8,1.8-1.8s1.8,0.8,1.8,1.8S311.8,182.7,310.8,182.7z M310.8,180.7
				c-0.1,0-0.2,0.1-0.2,0.2c0,0.2,0.3,0.2,0.3,0C310.9,180.8,310.9,180.7,310.8,180.7z"/>
		</g>
	</g>
</g>
<g>
	<g id="tea_cup_6_">
		<g>
			<path class="st0" d="M404.1,164.3c-6.5,0-13.1-1.7-13.1-4.9c0-3.2,6.6-4.9,13.1-4.9s13.1,1.7,13.1,4.9
				C417.2,162.6,410.6,164.3,404.1,164.3z M404.1,156.5c-6.9,0-11.1,1.9-11.1,2.9s4.2,2.9,11.1,2.9s11.1-1.9,11.1-2.9
				S411,156.5,404.1,156.5z"/>
		</g>
		<g>
			<path class="st0" d="M404.1,183.1c-4.1,0-8.2-1-8.2-3.3l1,0l1,0c0.2,0.3,2.3,1.3,6.2,1.3s6-1,6.2-1.4l1.9,0.6
				C411.6,182.4,407.5,183.1,404.1,183.1z"/>
		</g>
		<g>
			<path class="st0" d="M404.1,180.5c-4.9,0-8.1-0.6-9.8-1.9c-0.4-0.3-0.5-1-0.2-1.4c0.3-0.4,1-0.5,1.4-0.2c0.9,0.7,3.1,1.5,8.6,1.5
				c4.4,0,7.2-0.4,8.5-1.3c0.5-0.3,1.1-0.2,1.4,0.3c0.3,0.5,0.2,1.1-0.3,1.4C412,180,409,180.5,404.1,180.5z"/>
		</g>
		<g>
			<path class="st0" d="M412.2,180.3l-1.8-0.6l1.4-1.1c0.3,0.4,0.4,0.8,0.4,1.2C412.3,180,412.3,180.2,412.2,180.3z"/>
		</g>
		<g>
			<path class="st0" d="M411.3,180.6c-0.4,0-0.7-0.2-0.9-0.5c-0.3-0.5-0.1-1.1,0.4-1.3c4.8-2.5,4.7-14.2,4.3-18.5
				c-0.1-0.5,0.3-1,0.9-1.1c0.5-0.1,1,0.3,1.1,0.9c0.1,0.7,1.6,16.8-5.4,20.4C411.6,180.6,411.4,180.6,411.3,180.6z"/>
		</g>
		<g>
			<path class="st0" d="M410.8,174.9c-0.1,0-0.3,0-0.4-0.1c-0.5-0.2-0.7-0.8-0.5-1.3c1.1-2.5,1.3-5.7,1.3-7.9c0-0.6,0.5-1,1-1
				c0.6,0,1,0.5,1,1c-0.1,2.4-0.3,5.9-1.5,8.6C411.5,174.7,411.1,174.9,410.8,174.9z"/>
		</g>
		<g>
			<path class="st0" d="M397,180.6c-0.2,0-0.3,0-0.5-0.1c-7-3.6-5.4-19.7-5.4-20.4c0.1-0.5,0.5-0.9,1.1-0.9c0.5,0.1,1,0.5,0.9,1.1
				c-0.4,4.3-0.5,16,4.3,18.5c0.5,0.3,0.7,0.9,0.4,1.3C397.7,180.4,397.3,180.6,397,180.6z"/>
		</g>
		<g>
			<path class="st0" d="M416.6,178.1c-0.6,0-1.2-0.1-1.7-0.4c-0.5-0.2-0.9-0.6-1.2-1c-0.3-0.4-0.2-1.1,0.2-1.4
				c0.4-0.3,1.1-0.2,1.4,0.2c0.2,0.2,0.3,0.4,0.6,0.5c0.7,0.4,1.7,0.2,2.7-0.5c1.2-0.8,2.4-2.1,3.2-3.7c0.8-1.6,1.3-3.3,1.2-4.8
				c-0.1-1.2-0.5-2.2-1.2-2.5c-1.3-0.7-3.2,0.2-4.7,2.1c-0.3,0.4-1,0.5-1.4,0.2c-0.4-0.3-0.5-1-0.2-1.4c2.1-2.8,5-3.9,7.2-2.7
				c1.4,0.7,2.2,2.2,2.2,4.2c0.1,1.8-0.4,3.9-1.4,5.8c-1,1.9-2.4,3.5-3.9,4.5C418.6,177.8,417.5,178.1,416.6,178.1z"/>
		</g>
	</g>
</g>
<g>
	<g id="martini_bonus_6_">
		<g>
			<g>
				<path class="st0" d="M495.9,168c-0.3,0-0.5-0.1-0.7-0.3c-0.4-0.4-0.4-1,0-1.4l14.1-13.4c0.4-0.4,1-0.4,1.4,0
					c0.4,0.4,0.4,1,0,1.4l-14.1,13.4C496.4,167.9,496.1,168,495.9,168z"/>
			</g>
		</g>
		<g>
			<g>
				<path class="st2" d="M504.4,149.7"/>
			</g>
			<g>
				<path class="st2" d="M506.5,147.8"/>
			</g>
			<g>
				<path class="st0" d="M500.1,154.2c-0.3,0-0.6-0.1-0.8-0.3c-0.4-0.4-0.3-1,0.1-1.4l4-3.5c0.4-0.4,1-0.3,1.4,0.1
					c0.4,0.4,0.3,1-0.1,1.4l-4,3.5C500.6,154.1,500.4,154.2,500.1,154.2z"/>
			</g>
			<g>
				<path class="st3" d="M504.2,149.7"/>
			</g>
			<g>
				<path class="st3" d="M506.4,147.7"/>
			</g>
			<g>
				<path class="st0" d="M506.9,148.2c-0.3,0-0.6-0.1-0.7-0.3c-0.4-0.4-0.3-1,0.1-1.4l5.2-4.6c0.4-0.4,1-0.3,1.4,0.1
					c0.4,0.4,0.3,1-0.1,1.4l-5.2,4.6C507.4,148.2,507.1,148.2,506.9,148.2z"/>
			</g>
		</g>
		<g>
			<g>
				<path class="st0" d="M496.7,162.7c-0.3,0-0.5-0.1-0.7-0.3c-0.4-0.4-0.4-1,0-1.4l2.3-2.2c0.4-0.4,1-0.4,1.4,0
					c0.4,0.4,0.4,1,0,1.4l-2.3,2.2C497.2,162.6,496.9,162.7,496.7,162.7z"/>
			</g>
		</g>
		<g>
			<g>
				<path class="st0" d="M493.9,168c-0.2,0-0.5-0.1-0.7-0.3l-14.1-13.4c-0.4-0.4-0.4-1,0-1.4c0.4-0.4,1-0.4,1.4,0l14.1,13.4
					c0.4,0.4,0.4,1,0,1.4C494.4,167.9,494.1,168,493.9,168z"/>
			</g>
		</g>
		<g>
			<g>
				<path class="st0" d="M496.2,187.8c-0.5,0-0.9-0.3-1-0.8c-0.1-0.5-2.5-11.2,0-20.6c0.1-0.5,0.7-0.9,1.2-0.7
					c0.5,0.1,0.9,0.7,0.7,1.2c-2.4,8.9,0,19.5,0,19.6c0.1,0.5-0.2,1.1-0.8,1.2C496.3,187.8,496.3,187.8,496.2,187.8z"/>
			</g>
		</g>
		<g>
			<g>
				<path class="st0" d="M493.4,187.8c-0.1,0-0.1,0-0.2,0c-0.5-0.1-0.9-0.7-0.8-1.2c0-0.1,2.4-10.7,0-19.6c-0.1-0.5,0.2-1.1,0.7-1.2
					c0.5-0.1,1.1,0.2,1.2,0.7c2.5,9.3,0.1,20.1,0,20.6C494.3,187.5,493.9,187.8,493.4,187.8z"/>
			</g>
		</g>
		<g>
			<path class="st2" d="M502.6,147.8"/>
		</g>
		<g>
			<path class="st0" d="M494.9,158.2c-8.3,0-16.7-2.1-16.7-6c0-4,8.4-6,16.7-6c2.3,0,4.5,0.2,6.6,0.5c0.5,0.1,0.9,0.6,0.8,1.1
				c-0.1,0.5-0.6,0.9-1.1,0.8c-2-0.3-4.1-0.4-6.3-0.4c-9,0-14.7,2.4-14.7,4c0,1.6,5.7,4,14.7,4s14.7-2.4,14.7-4
				c0-0.4-0.4-0.8-0.8-1.1c-0.4-0.3-0.5-1-0.2-1.4c0.3-0.4,1-0.5,1.4-0.2c1,0.8,1.5,1.7,1.5,2.7
				C511.6,156.1,503.2,158.2,494.9,158.2z"/>
		</g>
		<g>
			<path class="st0" d="M494.9,191.1c-5,0-10.5-1.3-10.5-4c0-2.7,4.9-3.6,6.9-3.8c0.5-0.1,1,0.3,1.1,0.9s-0.3,1-0.9,1.1
				c-3.8,0.5-5.1,1.5-5.2,1.8c0.1,0.6,3.1,2,8.5,2s8.4-1.4,8.5-2c0-0.3-1.4-1.4-5.2-1.8c-0.5-0.1-0.9-0.6-0.9-1.1
				c0.1-0.5,0.6-0.9,1.1-0.9c2.1,0.3,7,1.1,7,3.8C505.4,189.8,499.9,191.1,494.9,191.1z"/>
		</g>
		<g>
			<path class="st0" d="M494.9,168.3c-0.9,0-1.7-0.4-2.3-1.1c-0.4-0.4-0.3-1,0.1-1.4c0.4-0.4,1-0.3,1.4,0.1c0.4,0.5,1.2,0.5,1.6-0.1
				c0.3-0.5,0.9-0.6,1.4-0.3c0.5,0.3,0.6,0.9,0.3,1.4C496.8,167.8,495.9,168.3,494.9,168.3z"/>
		</g>
		<g>
			<g>
				<path class="st0" d="M505.1,151.2c-0.6,0-1.2-0.2-1.5-0.6c-0.4-0.5-0.6-1.2-0.5-1.9c0.1-0.6,0.4-1.2,0.9-1.6
					c1.1-1,2.7-1.1,3.5-0.2c0.4,0.5,0.6,1.2,0.5,1.9c-0.1,0.6-0.4,1.2-0.9,1.6C506.5,150.9,505.8,151.2,505.1,151.2z M506,148.2
					c-0.2,0-0.4,0.1-0.7,0.3c-0.3,0.3-0.4,0.6-0.3,0.7l0.1,0c0.1,0,0.4-0.1,0.6-0.3C506,148.6,506,148.3,506,148.2
					C506,148.2,506,148.2,506,148.2z"/>
			</g>
		</g>
	</g>
</g>
<g>
	<g id="martini_6_">
		<g>
			<g>
				<path class="st0" d="M225.6,347.6c-0.3,0-0.5-0.1-0.7-0.3c-0.4-0.4-0.4-1,0-1.4l14.1-13.4c0.4-0.4,1-0.4,1.4,0
					c0.4,0.4,0.4,1,0,1.4l-14.1,13.4C226.1,347.5,225.8,347.6,225.6,347.6z"/>
			</g>
		</g>
		<g>
			<g>
				<path class="st2" d="M234.1,329.2"/>
			</g>
			<g>
				<path class="st2" d="M236.1,327.3"/>
			</g>
			<g>
				<path class="st3" d="M233.8,329.2"/>
			</g>
			<g>
				<path class="st3" d="M236.1,327.2"/>
			</g>
		</g>
		<g>
			<g>
				<path class="st0" d="M223.6,347.6c-0.2,0-0.5-0.1-0.7-0.3l-14.1-13.4c-0.4-0.4-0.4-1,0-1.4c0.4-0.4,1-0.4,1.4,0l14.1,13.4
					c0.4,0.4,0.4,1,0,1.4C224.1,347.5,223.8,347.6,223.6,347.6z"/>
			</g>
		</g>
		<g>
			<g>
				<path class="st0" d="M225.9,367.3c-0.5,0-0.9-0.3-1-0.8c-0.1-0.4-2.4-11,0-20.3c0-0.1,0-0.1,0.1-0.2c0.2-0.5,0.7-0.8,1.3-0.6
					c0.5,0.2,0.8,0.7,0.7,1.2c0,0,0,0.1,0,0.1c-2.3,8.8,0,19.3,0,19.4c0.1,0.5-0.2,1.1-0.8,1.2C226,367.3,226,367.3,225.9,367.3z"/>
			</g>
		</g>
		<g>
			<g>
				<path class="st0" d="M223.1,367.3c-0.1,0-0.1,0-0.2,0c-0.5-0.1-0.9-0.7-0.8-1.2c0-0.1,2.4-10.8,0-19.6c-0.1-0.5,0.2-1.1,0.7-1.2
					c0.5-0.1,1.1,0.2,1.2,0.7c2.5,9.3,0.1,20.1,0,20.6C224,367,223.6,367.3,223.1,367.3z"/>
			</g>
		</g>
		<g>
			<path class="st2" d="M232.3,327.3"/>
		</g>
		<g>
			<path class="st0" d="M224.6,370.6c-5,0-10.5-1.3-10.5-4c0-2.7,4.9-3.6,6.9-3.8c0.5-0.1,1,0.3,1.1,0.9c0.1,0.5-0.3,1-0.9,1.1
				c-3.8,0.5-5.1,1.5-5.2,1.8c0.1,0.6,3.1,2,8.5,2c5.4,0,8.4-1.4,8.5-2c0-0.3-1.4-1.4-5.2-1.8c-0.5-0.1-0.9-0.6-0.9-1.1
				c0.1-0.5,0.6-0.9,1.1-0.9c2.1,0.3,7,1.1,7,3.8C235,369.4,229.6,370.6,224.6,370.6z"/>
		</g>
		<g>
			<path class="st0" d="M224.6,347.9c-0.9,0-1.7-0.4-2.3-1.1c-0.4-0.4-0.3-1,0.1-1.4c0.4-0.4,1-0.3,1.4,0.1c0.4,0.5,1.2,0.5,1.6-0.1
				c0.3-0.5,0.9-0.6,1.4-0.3c0.5,0.3,0.6,0.9,0.3,1.4C226.5,347.4,225.6,347.9,224.6,347.9z"/>
		</g>
		<g>
			<path class="st0" d="M224.6,337.8c-8.3,0-16.7-2.1-16.7-6c0-3.9,8.4-6,16.7-6s16.7,2.1,16.7,6
				C241.3,335.7,232.9,337.8,224.6,337.8z M224.6,327.8c-9,0-14.7,2.4-14.7,4c0,1.6,5.7,4,14.7,4s14.7-2.4,14.7-4
				C239.3,330.2,233.5,327.8,224.6,327.8z"/>
		</g>
	</g>
</g>
<g>
	<g id="sekt_6_">
		<g>
			<path class="st0" d="M584.9,147.9c-4,0-8.1-1-8.1-3.3s4.1-3.3,8.1-3.3s8.1,1,8.1,3.3S588.9,147.9,584.9,147.9z M578.8,144.7
				c0.4,0.4,2.5,1.3,6.1,1.3c3.6,0,5.6-0.8,6.1-1.3c-0.4-0.4-2.5-1.3-6.1-1.3S579.2,144.2,578.8,144.7z"/>
		</g>
		<g>
			<path class="st0" d="M584.9,150.7c-1.9,0-8.1-0.2-8.1-2.7h2c0-0.2-0.1-0.3-0.1-0.3c0.3,0.3,2.5,1,6.2,1c3.6,0,5.8-0.7,6.2-1
				c0,0-0.1,0.1-0.1,0.3h2C593,150.5,586.8,150.7,584.9,150.7z"/>
		</g>
		<g>
			<path class="st0" d="M584.9,191c-4,0-8.1-1-8.1-3.3s4.1-3.3,8.1-3.3s8.1,1,8.1,3.3S588.9,191,584.9,191z M578.8,187.7
				c0.4,0.4,2.5,1.3,6.1,1.3c3.6,0,5.6-0.8,6.1-1.3c-0.4-0.4-2.5-1.3-6.1-1.3S579.2,187.3,578.8,187.7z"/>
		</g>
		<g>
			<path class="st0" d="M584.9,173.8c-5.3,0-8.1-14.7-8.1-29.1h2c0,16.8,3.6,27.1,6.1,27.1s6.1-10.3,6.1-27.1h2
				C593,159.1,590.2,173.8,584.9,173.8z"/>
		</g>
		<g>
			<path class="st0" d="M586.6,165c-0.1,0-0.2,0-0.3,0c-0.5-0.1-0.9-0.7-0.7-1.2c0.9-3.4,1.5-7.6,1.9-12.2c0-0.6,0.5-1,1.1-0.9
				c0.6,0,1,0.5,0.9,1.1c-0.3,4.8-1,9.1-1.9,12.6C587.4,164.7,587,165,586.6,165z"/>
		</g>
		<g>
			<path class="st0" d="M584.9,187.8c-0.6,0-1-0.4-1-1v-14c0-0.6,0.4-1,1-1s1,0.4,1,1v14C585.9,187.4,585.4,187.8,584.9,187.8z"/>
		</g>
	</g>
</g>
<g>
	<g id="red_wine_13_">
		<g>
			<path class="st0" d="M674.9,154.8c-5.1,0-10.5-1.3-10.5-4c0-2.8,5.4-4,10.5-4s10.5,1.3,10.5,4
				C685.4,153.6,679.9,154.8,674.9,154.8z M666.4,150.8c0.1,0.6,3.1,2,8.5,2c5.4,0,8.4-1.4,8.5-2c-0.1-0.6-3.1-2-8.5-2
				C669.5,148.8,666.5,150.2,666.4,150.8z"/>
		</g>
		<g>
			<path class="st0" d="M674.9,190.6c-5.1,0-10.5-1.3-10.5-4c0-2.8,5.4-4,10.5-4s10.5,1.3,10.5,4
				C685.4,189.3,679.9,190.6,674.9,190.6z M666.4,186.6c0.1,0.6,3.1,2,8.5,2c5.4,0,8.4-1.4,8.5-2c-0.1-0.6-3.1-2-8.5-2
				C669.5,184.5,666.5,185.9,666.4,186.6z"/>
		</g>
		<g>
			<path class="st0" d="M674.9,173.1c-7.2,0-13-6.5-13-14.4c0-3.3,1-6.5,2.9-9l1.6,1.2c-1.6,2.2-2.5,5-2.5,7.8
				c0,6.8,4.9,12.4,11,12.4s11-5.6,11-12.4c0-2.8-0.9-5.6-2.5-7.8l1.6-1.2c1.9,2.6,2.8,5.7,2.8,9
				C687.9,166.7,682.1,173.1,674.9,173.1z"/>
		</g>
		<g>
			<path class="st0" d="M682,163.8c-0.1,0-0.3,0-0.4-0.1c-0.5-0.2-0.7-0.8-0.5-1.3c0.8-1.7,0.7-3.7,0.5-5.7c0-0.4-0.1-0.8-0.2-1.1
				c-0.1-0.5,0.2-1.1,0.8-1.2c0.5-0.1,1.1,0.2,1.2,0.8c0.1,0.4,0.2,0.9,0.2,1.3c0.2,2.1,0.3,4.5-0.7,6.7
				C682.8,163.6,682.4,163.8,682,163.8z"/>
		</g>
		<g>
			<path class="st0" d="M674.9,186.2c-0.6,0-1-0.4-1-1v-13.1c0-0.6,0.4-1,1-1s1,0.4,1,1v13.1C675.9,185.7,675.4,186.2,674.9,186.2z"
				/>
		</g>
	</g>
</g>
<g>
	<g id="white_wine_6_">
		<g>
			<path class="st0" d="M494.9,460.6c-5.1,0-10.5-1.3-10.5-4s5.4-4,10.5-4s10.5,1.3,10.5,4S499.9,460.6,494.9,460.6z M486.4,456.6
				c0.1,0.6,3.1,2,8.5,2c5.4,0,8.4-1.4,8.5-2c-0.1-0.6-3.1-2-8.5-2C489.5,454.5,486.5,456,486.4,456.6z"/>
		</g>
		<g>
			<path class="st0" d="M494.9,446.1v-2c2.6,0,6-1.2,7.9-3.9c1.7-2.4,1.8-5.4,0.5-9.1c-1-2.9-1.6-9.2-1.2-13l2,0.2
				c-0.4,3.5,0.2,9.5,1.1,12.1c1.9,5.4,0.6,8.9-0.8,10.9C502.1,444.7,498,446.1,494.9,446.1z"/>
		</g>
		<g>
			<path class="st0" d="M499.6,440.5c-0.2,0-0.5-0.1-0.6-0.2c-0.4-0.4-0.5-1-0.1-1.4c1.6-1.9,1.8-4.4,0.7-7.6
				c-0.6-1.6-1-4.7-1.1-7.6c0-0.6,0.4-1,1-1c0,0,0,0,0,0c0.5,0,1,0.4,1,1c0.1,2.6,0.5,5.6,1,7c1.7,4.8,0.4,7.8-1.1,9.5
				C500.1,440.4,499.8,440.5,499.6,440.5z"/>
		</g>
		<g>
			<path class="st0" d="M494.9,446.1c-3.1,0-7.2-1.5-9.5-4.7c-1.4-2-2.7-5.5-0.8-10.9c0.9-2.6,1.5-8.7,1.1-12.1l2-0.2
				c0.4,3.8-0.2,10.1-1.2,13c-1.3,3.7-1.1,6.8,0.5,9.1c1.9,2.7,5.3,3.9,7.9,3.9V446.1z"/>
		</g>
		<g>
			<path class="st0" d="M494.9,456.2c-0.6,0-1-0.4-1-1v-10.1c0-0.6,0.4-1,1-1s1,0.4,1,1v10.1C495.9,455.8,495.4,456.2,494.9,456.2z"
				/>
		</g>
		<g>
			<path class="st0" d="M494.9,422.1c-4.6,0-9.2-1.1-9.2-3.6c0-2.5,4.6-3.6,9.2-3.6s9.2,1.1,9.2,3.6
				C504.1,420.9,499.5,422.1,494.9,422.1z M487.7,418.4c0.3,0.5,2.7,1.6,7.2,1.6c4.6,0,7-1.2,7.2-1.7c-0.2-0.4-2.6-1.6-7.2-1.6
				C490.4,416.8,488,418,487.7,418.4z"/>
		</g>
	</g>
</g>
<g>
	<g id="stopicka_6_">
		<g>
			<g>
				<path class="st0" d="M225,434.9c-0.6,0-1-0.4-1-1s0.4-1,1-1c2.6,0,3.1-1.8,3.6-5c0.3-1.9,0.7-3.9,1.9-5.3c0.4-0.4,1-0.5,1.4-0.1
					c0.4,0.4,0.5,1,0.1,1.4c-0.8,1-1.1,2.7-1.4,4.3C230.1,431.2,229.4,434.9,225,434.9z"/>
			</g>
			<g>
				<path class="st0" d="M225,434.9c-4.5,0-5.1-3.7-5.6-6.6c-0.3-1.7-0.6-3.5-1.6-4.5c-0.4-0.4-0.4-1,0-1.4c0.4-0.4,1-0.4,1.4,0
					c1.4,1.4,1.8,3.5,2.1,5.6c0.5,3.2,1,5,3.6,5c0.6,0,1,0.4,1,1S225.6,434.9,225,434.9z"/>
			</g>
		</g>
		<g>
			<path class="st0" d="M224.9,451.7c-0.6,0-1-0.4-1-1v-16.4c0-0.6,0.4-1,1-1s1,0.4,1,1v16.4C225.9,451.3,225.4,451.7,224.9,451.7z"
				/>
		</g>
		<g>
			<path class="st0" d="M224.9,454.6c-4,0-8.1-1-8.1-3.3s4.1-3.3,8.1-3.3c4,0,8.1,1,8.1,3.3S228.9,454.6,224.9,454.6z M218.8,451.4
				c0.4,0.4,2.5,1.3,6.1,1.3c3.6,0,5.6-0.8,6.1-1.3c-0.4-0.4-2.5-1.3-6.1-1.3S219.2,450.9,218.8,451.4z"/>
		</g>
		<g>
			<path class="st0" d="M224.9,424.5c-2.7,0-9-0.3-9-2.6c0-2.4,6.3-2.6,9-2.6c2.7,0,9,0.3,9,2.6
				C233.9,424.2,227.6,424.5,224.9,424.5z M218.6,421.8c1.1,0.3,3.3,0.6,6.3,0.6c3,0,5.1-0.3,6.3-0.6c-1.1-0.3-3.3-0.6-6.3-0.6
				C221.9,421.2,219.8,421.5,218.6,421.8z"/>
		</g>
	</g>
</g>
<g>
	<g id="cognac_6_">
		<g id="red_wine_12_">
			<g>
				<path class="st0" d="M404.9,426.1c-4.7,0-9.7-1.3-9.7-4s5-4,9.7-4c4.7,0,9.7,1.3,9.7,4S409.5,426.1,404.9,426.1z M404.9,420
					c-5,0-7.7,1.4-7.7,2s2.7,2,7.7,2s7.7-1.4,7.7-2S409.9,420,404.9,420z"/>
			</g>
			<g>
				<path class="st0" d="M404.9,455.8c-5.1,0-10.5-1.3-10.5-4c0-2.4,3.8-3.3,6.1-3.7c0.5-0.1,1.1,0.3,1.1,0.8
					c0.1,0.5-0.3,1.1-0.8,1.1c-3.2,0.5-4.4,1.5-4.4,1.7c0.1,0.6,3.1,2,8.5,2c5.4,0,8.4-1.4,8.5-2c0-0.3-1.1-1.2-4.3-1.7
					c-0.5-0.1-0.9-0.6-0.8-1.2c0.1-0.5,0.6-0.9,1.2-0.8c2.2,0.4,5.9,1.3,5.9,3.7C415.4,454.5,409.9,455.8,404.9,455.8z"/>
			</g>
			<g>
				<path class="st0" d="M404.9,444.3c-8.6,0-13-3.5-13-10.4c0-3.5,2.1-10.6,3.9-13l1.6,1.2c-1.5,2.1-3.5,8.8-3.5,11.8
					c0,5.7,3.5,8.4,11,8.4s11-2.7,11-8.4c0-3-2-9.8-3.5-11.8l1.6-1.2c1.8,2.4,3.8,9.5,3.8,13C417.9,440.8,413.5,444.3,404.9,444.3z"
					/>
			</g>
			<g>
				<path class="st0" d="M411.9,438.8c-0.2,0-0.4,0-0.5-0.1c-0.5-0.3-0.6-0.9-0.3-1.4c1.1-1.8,1.3-2.9,0.9-5.3
					c-0.1-0.9-0.5-2.1-0.9-3.2c-0.2-0.7-0.4-1.3-0.5-1.8c-0.1-0.5,0.2-1.1,0.7-1.2c0.5-0.1,1.1,0.2,1.2,0.7c0.1,0.5,0.3,1.1,0.5,1.7
					c0.4,1.1,0.8,2.4,0.9,3.5c0.5,2.9,0.2,4.5-1.2,6.7C412.6,438.7,412.2,438.8,411.9,438.8z"/>
			</g>
		</g>
		<g>
			<g>
				<path class="st0" d="M407.3,451.7c-0.3,0-0.5-0.1-0.7-0.3c-0.1-0.1-2.8-3.2-0.2-8.6c0.2-0.5,0.8-0.7,1.3-0.5
					c0.5,0.2,0.7,0.8,0.5,1.3c-2,4.1-0.2,6.3-0.1,6.4c0.4,0.4,0.3,1-0.1,1.4C407.7,451.6,407.5,451.7,407.3,451.7z"/>
			</g>
			<g>
				<path class="st0" d="M402.5,451.7c-0.2,0-0.5-0.1-0.7-0.3c-0.4-0.4-0.4-1-0.1-1.4c0.1-0.1,1.9-2.3-0.1-6.4
					c-0.2-0.5,0-1.1,0.5-1.3c0.5-0.2,1.1,0,1.3,0.5c2.6,5.3-0.1,8.5-0.2,8.6C403,451.6,402.8,451.7,402.5,451.7z"/>
			</g>
		</g>
	</g>
</g>
<g>
	<g id="water_glass_6_">
		<g>
			<g id="glas_bubles_12_">
				<g>
					<path class="st0" d="M134.9,245c-6.6,0-13.7-1.5-13.7-4.7c0-3.2,7.1-4.7,13.7-4.7s13.7,1.5,13.7,4.7
						C148.5,243.5,141.5,245,134.9,245z M134.9,237.6c-7.7,0-11.7,1.9-11.7,2.7s4,2.7,11.7,2.7s11.7-1.9,11.7-2.7
						S142.6,237.6,134.9,237.6z"/>
				</g>
				<g>
					<path class="st0" d="M134.9,278.2c-4.7,0-8.5-1.1-10-3l1.6-1.3c0.9,1.1,3.9,2.3,8.5,2.3c3.9,0,7-0.9,8.5-2.3l1.4,1.4
						C142.9,277.2,139.4,278.2,134.9,278.2z"/>
				</g>
				<g>
					<path class="st0" d="M125.7,275.6c-0.5,0-0.9-0.4-1-0.9l-3-33.3c0-0.6,0.4-1,0.9-1.1c0.6,0,1,0.4,1.1,0.9l3,33.3
						C126.7,275.1,126.3,275.5,125.7,275.6C125.7,275.6,125.7,275.6,125.7,275.6z"/>
				</g>
				<g>
					<path class="st0" d="M144.1,275.6C144.1,275.6,144,275.6,144.1,275.6c-0.6-0.1-1-0.5-1-1.1l3-33.3c0-0.5,0.5-1,1.1-0.9
						c0.5,0,1,0.5,0.9,1.1l-3,33.3C145,275.2,144.6,275.6,144.1,275.6z"/>
				</g>
				<g>
					<g>
						<path class="st0" d="M138.4,277.2C138.4,277.2,138.4,277.2,138.4,277.2c-0.6,0-1-0.5-1-1l0.6-20.8c0-0.2,0.1-0.4,0.2-0.6
							c0.1-0.1,1.9-2.6,4.4-2.8c1.4-0.1,2.7,0.4,3.9,1.6c0.4,0.4,0.4,1,0,1.4s-1,0.4-1.4,0c-0.8-0.8-1.6-1.1-2.4-1.1
							c-1.3,0.1-2.4,1.2-2.8,1.7l-0.6,20.4C139.4,276.8,138.9,277.2,138.4,277.2z"/>
					</g>
				</g>
				<g>
					<g>
						<path class="st0" d="M131.6,277.2c-0.5,0-1-0.4-1-1l-0.6-20.4c-0.4-0.5-1.5-1.6-2.8-1.7c-0.8-0.1-1.6,0.3-2.4,1.1
							c-0.4,0.4-1,0.4-1.4,0s-0.4-1,0-1.4c1.2-1.2,2.5-1.8,3.9-1.6c2.6,0.2,4.4,2.7,4.4,2.8c0.1,0.2,0.2,0.4,0.2,0.6l0.6,20.8
							C132.6,276.7,132.2,277.2,131.6,277.2C131.6,277.2,131.6,277.2,131.6,277.2z"/>
					</g>
				</g>
			</g>
			<g>
				<path class="st0" d="M131,256.5c-0.3,0-0.6-0.1-0.8-0.3c-0.4-0.4-0.3-1,0.1-1.4c1.7-1.4,5.7-3.3,9.1,0c0.4,0.4,0.4,1,0,1.4
					s-1,0.4-1.4,0c-2.9-2.9-6.2-0.1-6.3,0C131.5,256.4,131.3,256.5,131,256.5z"/>
			</g>
		</g>
		<g>
			<path class="st3" d="M143.1,256"/>
		</g>
		<g>
			<path class="st3" d="M143.4,251.1"/>
		</g>
	</g>
</g>
<g>
	<g id="coffe_to_go_cup_6_">
		<g>
			<path class="st0" d="M216.3,238.8c-0.6,0-1-0.4-1-1v-2.3c0-0.2,0-0.6,0.4-1.1c1.1-1.2,4.1-1.8,9.2-1.8c0.6,0,1,0.4,1,1
				s-0.4,1-1,1c-5.8,0-7.3,0.8-7.6,1v2.1C217.3,238.4,216.9,238.8,216.3,238.8z"/>
		</g>
		<g>
			<path class="st0" d="M224.9,247.2c-6.7,0-13.6-1.7-13.6-5v-2.8c0-0.6,0.4-1,1-1s1,0.4,1,1v2.8c0,1,4.1,3,11.6,3s11.6-2,11.6-3
				c0-0.6,0.4-1,1-1s1,0.4,1,1C238.5,245.5,231.6,247.2,224.9,247.2z"/>
		</g>
		<g>
			<path class="st0" d="M237.5,243.2c-0.6,0-1-0.4-1-1v-2.8c0-0.2-0.3-0.6-1-1c-0.5-0.3-0.6-0.9-0.3-1.4c0.3-0.5,0.9-0.6,1.4-0.3
				c1.6,1,1.9,2,1.9,2.7v2.8C238.5,242.8,238,243.2,237.5,243.2z"/>
		</g>
		<g>
			<path class="st0" d="M212.3,240.5c-0.6,0-1-0.4-1-1c0-0.7,0.3-1.8,1.9-2.7c0.5-0.3,1.1-0.1,1.4,0.3c0.3,0.5,0.1,1.1-0.3,1.4
				c-0.7,0.4-1,0.8-1,1C213.3,240,212.9,240.5,212.3,240.5z"/>
		</g>
		<g>
			<path class="st0" d="M224.9,243.3c-5.2,0-13.4-1.2-13.4-4.6h2c0.1,0.8,4.6,2.6,11.4,2.6c6.8,0,11.3-1.8,11.4-2.6l2,0
				C238.3,242.1,230.1,243.3,224.9,243.3z"/>
		</g>
		<g>
			<path class="st0" d="M224.9,237.8c-3.2,0-6.4-0.5-8.7-1.2c-0.5-0.2-0.8-0.8-0.6-1.3c0.2-0.5,0.7-0.8,1.3-0.6c2,0.7,5.1,1.1,8,1.1
				c3,0,6.1-0.5,8.1-1.2c0.5-0.2,1.1,0.1,1.3,0.6c0.2,0.5-0.1,1.1-0.6,1.3C231.4,237.4,228.1,237.8,224.9,237.8z"/>
		</g>
		<g>
			<path class="st0" d="M224.9,259.9c-5.8,0-11.9-1.1-11.9-4.2h2c0,0.7,2.9,2.2,9.9,2.2c7.1,0,10-1.6,10-2.2h2
				C236.9,258.8,230.7,259.9,224.9,259.9z"/>
		</g>
		<g>
			<path class="st0" d="M224.9,271.4c-4.4,0-10.9-1.1-10.9-4.2h2c0.1,0.6,3.4,2.2,8.9,2.2s8.8-1.5,8.9-2.2l2,0
				C235.8,270.3,229.3,271.4,224.9,271.4z"/>
		</g>
		<g>
			<path class="st0" d="M224.9,280.1c-4.4,0-9.2-1.1-9.2-3.6h2c0.2,0.4,2.6,1.6,7.2,1.6s7.1-1.2,7.2-1.7l2,0
				C234.1,279,229.3,280.1,224.9,280.1z"/>
		</g>
		<g>
			<path class="st0" d="M216.7,277.5c-0.5,0-0.9-0.4-1-0.9l-0.6-7.1c0-0.6,0.4-1,0.9-1.1c0.6,0,1,0.4,1.1,0.9l0.6,7.1
				C217.7,277,217.3,277.5,216.7,277.5C216.7,277.5,216.7,277.5,216.7,277.5z"/>
		</g>
		<g>
			<path class="st0" d="M214.9,268.3c-0.5,0-1-0.4-1-0.9l-1-11.6c0-0.6,0.4-1,0.9-1.1c0.6,0,1,0.4,1.1,0.9l1,11.6
				C216,267.7,215.6,268.2,214.9,268.3C215,268.3,215,268.3,214.9,268.3z"/>
		</g>
		<g>
			<path class="st0" d="M214.9,257.9c-0.5,0-0.9-0.4-1-0.9l-1.2-12.9c0-0.5,0.4-1,0.9-1.1c0.6,0,1,0.4,1.1,0.9l1.2,12.9
				C216,257.4,215.6,257.9,214.9,257.9C215,257.9,215,257.9,214.9,257.9z"/>
		</g>
		<g>
			<path class="st0" d="M233.1,277.5C233.1,277.5,233,277.5,233.1,277.5c-0.6-0.1-1-0.5-1-1.1l0.7-7.9c0.1-0.5,0.5-1,1.1-0.9
				c0.5,0.1,1,0.5,0.9,1.1l-0.7,7.9C234,277.1,233.6,277.5,233.1,277.5z"/>
		</g>
		<g>
			<path class="st0" d="M234.8,268.3C234.8,268.3,234.8,268.3,234.8,268.3c-0.6-0.1-1-0.5-1-1.1l1-11.6c0-0.5,0.5-0.9,1.1-0.9
				c0.5,0,1,0.5,0.9,1.1l-1,11.6C235.8,267.9,235.3,268.3,234.8,268.3z"/>
		</g>
		<g>
			<path class="st0" d="M234.9,257.9C234.8,257.9,234.8,257.9,234.9,257.9c-0.6-0.1-1-0.5-1-1.1L235,244c0-0.5,0.5-1,1.1-0.9
				c0.6,0,1,0.5,0.9,1.1l-1.1,12.8C235.8,257.5,235.4,257.9,234.9,257.9z"/>
		</g>
		<g>
			<path class="st0" d="M233.5,238.8c-0.6,0-1-0.4-1-1v-2c-0.3-0.2-1.8-1-7.6-1c-0.6,0-1-0.4-1-1s0.4-1,1-1c5.1,0,8.1,0.6,9.2,1.8
				c0.4,0.4,0.4,0.8,0.4,1.1v2.2C234.5,238.3,234,238.8,233.5,238.8z"/>
		</g>
		<g>
			<path class="st0" d="M237.5,243.2c-0.6,0-1-0.4-1-1v-2.8c0-0.6,0.4-1,1-1s1,0.4,1,1v2.8C238.5,242.8,238,243.2,237.5,243.2z"/>
		</g>
		<g>
			<g>
				<line class="st1" x1="231.2" y1="258.5" x2="230.5" y2="269.3"/>
				<path class="st0" d="M230.5,270.3C230.4,270.3,230.4,270.3,230.5,270.3c-0.6,0-1-0.5-1-1.1l0.7-10.8c0-0.6,0.5-1,1.1-0.9
					c0.6,0,1,0.5,0.9,1.1l-0.7,10.8C231.4,269.9,231,270.3,230.5,270.3z"/>
			</g>
			<g>
				<line class="st1" x1="227" y1="259" x2="226.7" y2="269.3"/>
				<path class="st0" d="M226.8,270.3C226.7,270.3,226.7,270.3,226.8,270.3c-0.6,0-1-0.5-1-1L226,259c0-0.6,0.5-1,1-1
					c0.6,0,1,0.5,1,1l-0.2,10.3C227.7,269.9,227.3,270.3,226.8,270.3z"/>
			</g>
			<g>
				<line class="st1" x1="222.8" y1="259.3" x2="223" y2="269.3"/>
				<path class="st0" d="M223,270.3c-0.5,0-1-0.4-1-1l-0.2-10c0-0.6,0.4-1,1-1c0.6,0,1,0.4,1,1l0.2,10
					C224,269.8,223.6,270.3,223,270.3C223,270.3,223,270.3,223,270.3z"/>
			</g>
			<g>
				<line class="st1" x1="218.6" y1="258.5" x2="219.3" y2="269.3"/>
				<path class="st0" d="M219.3,270.3c-0.5,0-1-0.4-1-0.9l-0.7-10.8c0-0.6,0.4-1,0.9-1.1c0.5,0,1,0.4,1.1,0.9l0.7,10.8
					C220.3,269.8,219.9,270.3,219.3,270.3C219.4,270.3,219.3,270.3,219.3,270.3z"/>
			</g>
		</g>
		<g>
			<path class="st0" d="M231.9,256.1C231.8,256.1,231.8,256.1,231.9,256.1c-0.6,0-1-0.5-1-1.1l0.5-7c0-0.6,0.5-1,1.1-0.9
				c0.6,0,1,0.5,0.9,1.1l-0.5,7C232.8,255.7,232.4,256.1,231.9,256.1z"/>
		</g>
	</g>
</g>
<g>
	<g id="piccolo_cup_6_">
		<g>
			<path class="st0" d="M314.9,255.4c-5.2,0-10.8-1.3-10.8-4.1s5.6-4.1,10.8-4.1s10.8,1.3,10.8,4.1S320.1,255.4,314.9,255.4z
				 M314.9,249.1c-5.8,0-8.8,1.6-8.8,2.1s3,2.1,8.8,2.1s8.8-1.6,8.8-2.1S320.7,249.1,314.9,249.1z"/>
		</g>
		<g>
			<path class="st0" d="M314.9,268.7c-4.7,0-5.2-1.9-5.2-2.7l2,0c0.1,0.1,0.8,0.7,3.2,0.7c2.5,0,3.2-0.6,3.2-0.8l1.9,0.6
				C319.6,267.9,317.8,268.7,314.9,268.7z"/>
		</g>
		<g>
			<path class="st0" d="M314.9,266.2c-3.1,0-5-0.1-6.5-1.1c-0.4-0.3-0.5-1-0.2-1.4c0.3-0.4,1-0.5,1.4-0.2c0.9,0.6,2.3,0.7,5.3,0.7
				c2.8,0,4.3,0,5.2-0.7c0.5-0.3,1.1-0.2,1.4,0.3c0.3,0.5,0.2,1.1-0.3,1.4C319.8,266.2,318,266.2,314.9,266.2z"/>
		</g>
		<g>
			<path class="st0" d="M319.1,266.9c-0.4,0-0.7-0.2-0.9-0.5c-0.3-0.5-0.1-1.1,0.4-1.3c3.4-1.8,4.7-10.2,5-13.3c0-0.6,0.5-1,1.1-0.9
				c0.6,0,1,0.5,0.9,1.1c-0.1,1.3-1,12.3-6,14.9C319.4,266.9,319.2,266.9,319.1,266.9z"/>
		</g>
		<g>
			<path class="st0" d="M319.8,261.2c-0.1,0-0.3,0-0.4-0.1c-0.5-0.2-0.7-0.8-0.5-1.3c0.5-1.3,0.8-2.1,1-3.5c0.1-0.5,0.6-0.9,1.2-0.8
				c0.5,0.1,0.9,0.6,0.8,1.2c-0.3,1.5-0.5,2.5-1.2,3.9C320.6,261,320.2,261.2,319.8,261.2z"/>
		</g>
		<g>
			<path class="st0" d="M310.7,266.9c-0.2,0-0.3,0-0.5-0.1c-5-2.6-5.9-13.7-6-14.9c0-0.6,0.4-1,0.9-1.1c0.6,0,1,0.4,1.1,0.9
				c0.2,3.1,1.5,11.5,5,13.3c0.5,0.3,0.7,0.9,0.4,1.3C311.4,266.7,311,266.9,310.7,266.9z"/>
		</g>
		<g>
			<path class="st0" d="M322.6,264.2c-0.4,0-0.7-0.2-0.9-0.5c-0.3-0.5-0.1-1.1,0.4-1.3c0.6-0.3,1.4-0.8,2.2-1.2
				c0.5-0.3,1-0.6,1.4-0.8c1.8-0.9,2.4-2.1,1.8-3.5c-0.1-0.2-0.3-0.6-0.6-0.6c-0.3,0-1,0.3-1.8,1.5c-0.3,0.5-0.9,0.6-1.4,0.3
				s-0.6-0.9-0.3-1.4c1.4-2.1,2.8-2.5,3.7-2.4c1,0.1,1.8,0.8,2.2,1.8c1,2.3,0,4.6-2.7,6c-0.4,0.2-0.9,0.5-1.4,0.8
				c-0.8,0.4-1.6,0.9-2.3,1.3C322.9,264.1,322.7,264.2,322.6,264.2z"/>
		</g>
	</g>
</g>
<g>
	<g id="margherita_glass_bonus_6_">
		<g>
			<g>
				<g>
					<path class="st0" d="M406.1,277.4c-0.4,0-0.8-0.2-0.9-0.6c-0.1-0.4-3.5-9.1-1-16.7c0.2-0.5,0.7-0.8,1.3-0.6
						c0.5,0.2,0.8,0.7,0.6,1.3c-2.3,6.9,0.9,15.2,1,15.3c0.2,0.5,0,1.1-0.6,1.3C406.4,277.4,406.2,277.4,406.1,277.4z"/>
				</g>
			</g>
			<g>
				<g>
					<path class="st0" d="M403.3,277.4c-0.1,0-0.2,0-0.4-0.1c-0.5-0.2-0.8-0.8-0.6-1.3c0-0.1,3.3-8.4,1-15.3
						c-0.2-0.5,0.1-1.1,0.6-1.3c0.5-0.2,1.1,0.1,1.3,0.6c2.5,7.6-0.9,16.3-1,16.7C404.1,277.2,403.7,277.4,403.3,277.4z"/>
				</g>
			</g>
		</g>
		<g>
			<path class="st0" d="M404.8,280.7c-5,0-10.5-1.3-10.5-4c0-2.7,4.9-3.6,6.9-3.8c0.6-0.1,1,0.3,1.1,0.9s-0.3,1-0.9,1.1
				c-3.8,0.5-5.1,1.5-5.2,1.8c0.1,0.6,3.1,2,8.5,2s8.4-1.4,8.5-2c0-0.3-1.4-1.4-5.2-1.8c-0.5-0.1-0.9-0.6-0.9-1.1s0.6-0.9,1.1-0.9
				c2.1,0.3,6.9,1.1,6.9,3.8C415.3,279.5,409.8,280.7,404.8,280.7z"/>
		</g>
		<g>
			<path class="st0" d="M404.7,260.3c-4.9,0-7.4-2.8-7.4-8.4c0-0.6,0.4-1,1-1s1,0.4,1,1c0,4.5,1.6,6.4,5.4,6.4
				c3.8,0,5.4-1.9,5.4-6.4c0-0.6,0.4-1,1-1s1,0.4,1,1C412.1,257.5,409.6,260.3,404.7,260.3z"/>
		</g>
		<g>
			<path class="st0" d="M398.3,252.9c-4.1,0-9.7-4.3-9.7-8.7v-3c0-0.6,0.4-1,1-1s1,0.4,1,1v3c0,3.2,4.6,6.7,7.7,6.7c0.6,0,1,0.4,1,1
				S398.9,252.9,398.3,252.9z"/>
		</g>
		<g>
			<path class="st0" d="M411.1,252.9c-0.6,0-1-0.4-1-1s0.4-1,1-1c3.1,0,7.7-3.5,7.7-6.7v-3c0-0.6,0.4-1,1-1s1,0.4,1,1v3
				C420.8,248.6,415.3,252.9,411.1,252.9z"/>
		</g>
		<g>
			<path class="st0" d="M404.7,247.3c-8,0-16.1-2-16.1-5.8s8.1-5.8,16.1-5.8c2.7,0,5.4,0.2,7.7,0.7c0.5,0.1,0.9,0.6,0.8,1.2
				c-0.1,0.5-0.6,0.9-1.2,0.8c-2.2-0.4-4.8-0.6-7.4-0.6c-8.6,0-14.1,2.3-14.1,3.8s5.5,3.8,14.1,3.8s14.1-2.3,14.1-3.8
				c0-0.6,0.4-1,1-1s1,0.4,1,1C420.8,245.3,412.7,247.3,404.7,247.3z"/>
		</g>
		<g>
			<path class="st4" d="M417.5,238.8"/>
		</g>
		<g>
			<path class="st4" d="M413.1,237.4"/>
		</g>
		<g>
			<g>
				<path class="st0" d="M422.4,246.1c-0.4,0-0.8-0.3-0.9-0.7c-0.2-0.5,0.1-1.1,0.6-1.3c1.2-0.4,2.2-1.3,2.7-2.5
					c0.2-0.5,0.8-0.7,1.3-0.5c0.5,0.2,0.7,0.8,0.5,1.3c-0.7,1.6-2.1,2.9-3.8,3.5C422.6,246.1,422.5,246.1,422.4,246.1z"/>
			</g>
			<g>
				<path class="st0" d="M425.7,243.1c-0.1,0-0.3,0-0.4-0.1c-0.5-0.2-0.7-0.8-0.5-1.3c0.2-0.4,0.3-0.7,0.4-1.1
					c0.5-2.6-1.2-5-3.8-5.5c-2.6-0.5-5,1.2-5.5,3.8c-0.2,0.9-0.1,1.9,0.3,2.7c0.2,0.5,0,1.1-0.5,1.3c-0.5,0.2-1.1,0-1.3-0.5
					c-0.5-1.2-0.7-2.6-0.4-3.9c0.7-3.6,4.2-6,7.8-5.4c3.6,0.7,6.1,4.2,5.4,7.8c-0.1,0.6-0.3,1.1-0.5,1.6
					C426.4,242.9,426,243.1,425.7,243.1z"/>
			</g>
		</g>
		<g>
			
				<rect x="420.1" y="235.1" transform="matrix(0.9643 0.2646 -0.2646 0.9643 77.9012 -102.979)" class="st0" width="2" height="5"/>
		</g>
		<g>
			
				<rect x="416.7" y="236.9" transform="matrix(0.4947 0.8691 -0.8691 0.4947 418.5403 -244.1372)" class="st0" width="5" height="2"/>
		</g>
		<g>
			<rect x="415.5" y="238.4" transform="matrix(0.9643 0.2647 -0.2647 0.9643 78.2705 -102.11)" class="st0" width="5" height="2"/>
		</g>
		<g>
			
				<rect x="419.2" y="241.2" transform="matrix(0.4947 0.8691 -0.8691 0.4947 423.6042 -244.091)" class="st0" width="5" height="2"/>
		</g>
		<g>
			
				<rect x="420.4" y="239.7" transform="matrix(0.9643 0.2647 -0.2647 0.9643 78.8144 -103.3659)" class="st0" width="5" height="2"/>
		</g>
		<g>
			
				<rect x="421.7" y="236.3" transform="matrix(0.495 0.8689 -0.8689 0.495 420.9482 -246.6456)" class="st0" width="2" height="5"/>
		</g>
	</g>
</g>
<g>
	<g id="margherita_glass_7_">
		<g>
			<g>
				<g>
					<path class="st0" d="M136.4,368.2c-0.4,0-0.8-0.2-0.9-0.6c-0.1-0.4-3.5-9.1-1-16.7c0.2-0.5,0.7-0.8,1.3-0.6
						c0.5,0.2,0.8,0.7,0.6,1.3c-2.3,6.9,0.9,15.2,1,15.3c0.2,0.5,0,1.1-0.6,1.3C136.7,368.2,136.6,368.2,136.4,368.2z"/>
				</g>
			</g>
			<g>
				<g>
					<path class="st0" d="M133.7,368.2c-0.1,0-0.2,0-0.4-0.1c-0.5-0.2-0.8-0.8-0.6-1.3c0-0.1,3.3-8.4,1-15.3
						c-0.2-0.5,0.1-1.1,0.6-1.3c0.5-0.2,1.1,0.1,1.3,0.6c2.5,7.6-0.9,16.3-1,16.7C134.4,368,134.1,368.2,133.7,368.2z"/>
				</g>
			</g>
		</g>
		<g>
			<path class="st0" d="M135.1,371.6c-5,0-10.5-1.3-10.5-4c0-2.7,4.9-3.6,6.9-3.8c0.5-0.1,1,0.3,1.1,0.9s-0.3,1-0.9,1.1
				c-3.8,0.5-5.1,1.5-5.2,1.8c0.1,0.6,3.1,2,8.5,2s8.4-1.4,8.5-2c0-0.3-1.4-1.3-5.1-1.8c-0.5-0.1-0.9-0.6-0.9-1.1s0.6-0.9,1.1-0.9
				c2.1,0.3,6.8,1.2,6.8,3.8C145.6,370.3,140.2,371.6,135.1,371.6z"/>
		</g>
		<g>
			<path class="st0" d="M135.1,351.1c-4.9,0-7.4-2.8-7.4-8.4c0-0.6,0.4-1,1-1s1,0.4,1,1c0,4.5,1.6,6.4,5.4,6.4s5.4-1.9,5.4-6.4
				c0-0.6,0.4-1,1-1s1,0.4,1,1C142.5,348.3,140,351.1,135.1,351.1z"/>
		</g>
		<g>
			<path class="st0" d="M128.6,343.7c-4.1,0-9.7-4.3-9.7-8.7v-3c0-0.6,0.4-1,1-1s1,0.4,1,1v3c0,3.2,4.6,6.7,7.7,6.7c0.6,0,1,0.4,1,1
				S129.2,343.7,128.6,343.7z"/>
		</g>
		<g>
			<path class="st0" d="M141.5,343.7c-0.6,0-1-0.4-1-1s0.4-1,1-1c3.1,0,7.7-3.5,7.7-6.7v-3c0-0.6,0.4-1,1-1s1,0.4,1,1v3
				C151.2,339.4,145.6,343.7,141.5,343.7z"/>
		</g>
		<g>
			<path class="st4" d="M145.8,332"/>
		</g>
		<g>
			<path class="st4" d="M143.4,328.2"/>
		</g>
		<g>
			<path class="st0" d="M135.1,338c-8,0-16.1-2-16.1-5.8s8.1-5.8,16.1-5.8s16.1,2,16.1,5.8S143.1,338,135.1,338z M135.1,328.4
				c-8.6,0-14.1,2.3-14.1,3.8s5.5,3.8,14.1,3.8s14.1-2.3,14.1-3.8S143.7,328.4,135.1,328.4z"/>
		</g>
	</g>
</g>
<g>
	<g id="beer_glass_6_">
		<g>
			<path class="st0" d="M494,246.8c-7,0-14.2-1.8-14.2-5.2c0-3.4,7.1-5.2,14.2-5.2s14.2,1.8,14.2,5.2C508.2,245,501,246.8,494,246.8
				z M494,238.4c-7.9,0-12.2,2.1-12.2,3.2c0,1.1,4.3,3.2,12.2,3.2c7.9,0,12.2-2.1,12.2-3.2C506.2,240.5,501.9,238.4,494,238.4z"/>
		</g>
		<g>
			<path class="st0" d="M494,249.7c-6,0-11.1-1.6-13.9-3.1l0.9-1.8c2.6,1.4,7.3,2.8,12.9,2.8c5.6,0,10.4-1.4,13-2.8l0.9,1.8
				C505,248.1,499.9,249.7,494,249.7z"/>
		</g>
		<g>
			<path class="st5" d="M482.7,240.6"/>
		</g>
		<g>
			<path class="st0" d="M507.8,248.4c-0.5,0-1-0.4-1-0.9c-0.3-3.4-0.6-5.7-0.6-5.7c-0.1-0.5,0.3-1.1,0.8-1.1
				c0.6-0.1,1.1,0.3,1.1,0.8c0,0.1,0.4,2.4,0.7,5.9C508.8,247.8,508.4,248.3,507.8,248.4C507.8,248.4,507.8,248.4,507.8,248.4z"/>
		</g>
		<g>
			<path class="st0" d="M507.3,266c-0.1,0-0.1,0-0.2,0c-0.5-0.1-0.9-0.6-0.8-1.1c0.6-3.5,0.8-7.4,0.8-11.7c0-0.6,0.4-1,1-1
				c0.6,0,1,0.4,1,1c0.1,4.4-0.2,8.5-0.8,12.1C508.2,265.6,507.8,266,507.3,266z"/>
		</g>
		<g>
			<path class="st0" d="M493.9,277.4c-5.7,0-11.9-1.4-12.2-4.3c-5.1-12.4-2.1-30.9-2-31.6c0.1-0.5,0.6-0.9,1.1-0.8
				c0.5,0.1,0.9,0.6,0.8,1.1c0,0.2-3,18.8,1.9,30.7c0,0.1,0.1,0.3,0.1,0.4c0,0.8,3.5,2.6,10.2,2.6c6.7,0,10.2-1.8,10.2-2.6
				c0-0.1,0-0.3,0.1-0.4c0.2-0.6,0.5-1.2,0.7-1.8c0.2-0.5,0.7-0.8,1.3-0.6c0.5,0.2,0.8,0.7,0.6,1.3c-0.2,0.6-0.4,1.2-0.6,1.7
				C505.8,276.1,499.7,277.4,493.9,277.4z"/>
		</g>
		<g>
			<path class="st0" d="M506.1,266.5c2,0.9,4.3,0.5,5.9-1c1.7-1.5,2.7-3.8,2.7-6.2c0.1-2.4-0.8-4.8-2.4-6.4
				c-0.8-0.8-1.8-1.4-2.9-1.7c-1.1-0.3-2.3-0.2-3.3,0.2c-0.5,0.2-1.1-0.1-1.3-0.6c-0.2-0.5,0.1-1.1,0.6-1.3c1.4-0.6,3-0.7,4.5-0.4
				c1.5,0.3,2.9,1.1,4,2.1c2.2,2.1,3.3,5.1,3.4,8.1c0,3-1.1,6-3.4,8.2c-1.1,1.1-2.6,1.9-4.2,2.2c-0.8,0.2-1.6,0.2-2.4,0.1
				c-0.4,0-0.8-0.1-1.2-0.2c-0.4-0.1-0.9-0.3-1.1-0.4l-0.1,0c-0.8-0.3-1.1-1.2-0.8-2C504.3,266.5,505.2,266.1,506.1,266.5
				C506,266.4,506.1,266.5,506.1,266.5z"/>
		</g>
		<g>
			<path class="st0" d="M484.8,253.5c-0.6,0-1.1-0.2-1.6-0.5l-1.3-0.9c-0.8-0.5-1.2-1.6-1.2-2.5l0.1-1.5c0.1-0.7,0.4-1.7,1.1-2
				l0.4-0.2c0.5-0.2,1.1,0,1.3,0.5c0.2,0.5,0,1.1-0.5,1.3l-0.3,0.1c0,0.1-0.1,0.3-0.1,0.5l-0.1,1.5c0,0.2,0.2,0.6,0.3,0.7l1.3,0.9
				c0.2,0.1,0.6,0.1,0.7,0.1l1.4-0.7c0.2-0.1,0.4-0.4,0.4-0.6l0.2-2.2c0-0.6,0.5-0.9,1.1-0.9c0.5,0,1,0.5,0.9,1.1l-0.2,2.1
				c-0.1,0.9-0.7,1.8-1.6,2.2l-1.4,0.7C485.6,253.4,485.2,253.5,484.8,253.5z"/>
		</g>
		<g>
			<path class="st0" d="M494,254.6c-0.5,0-1-0.1-1.4-0.3l-1.3-0.8c-0.8-0.5-1.4-1.5-1.4-2.4v-1.5c0-0.6,0.4-1,1-1s1,0.4,1,1v1.5
				c0,0.2,0.2,0.5,0.4,0.6l1.3,0.8c0.2,0.1,0.6,0.1,0.7,0l1.3-0.8c0.2-0.1,0.4-0.4,0.4-0.6v-2.4c0-0.6,0.4-1,1-1s1,0.4,1,1v2.4
				c0,0.9-0.6,1.9-1.4,2.4l-1.3,0.8C494.9,254.4,494.5,254.6,494,254.6z"/>
		</g>
		<g>
			<path class="st0" d="M497.3,274.1l-2-0.2l0.7-8.5c0,0,0-0.1-0.1-0.1l-1.7-0.8c-0.1-0.1-0.4-0.1-0.6,0l-1.7,0.8
				c0,0-0.1,0.1-0.1,0.1l0.7,8.5l-2,0.2l-0.7-8.5c-0.1-0.8,0.5-1.7,1.2-2.1l1.7-0.8c0.6-0.3,1.6-0.3,2.2,0l1.7,0.8
				c0.8,0.4,1.3,1.2,1.2,2.1L497.3,274.1z"/>
		</g>
		<g>
			<path class="st0" d="M487.8,275.6l-0.8-10.7c0-0.1-0.2-0.4-0.3-0.4l-1.9-0.6c-0.2-0.1-0.7,0-0.9,0.1l-2.5,1.8l-1.2-1.6l2.5-1.8
				c0.7-0.5,1.8-0.7,2.7-0.4l1.9,0.6c0.9,0.3,1.6,1.2,1.7,2.2l0.8,10.7L487.8,275.6z"/>
		</g>
		<g>
			<path class="st0" d="M500,275.6l-2-0.1l0.8-10.7c0.1-0.9,0.8-1.9,1.7-2.2l1.9-0.6c0.8-0.3,1.9-0.1,2.7,0.4l2.7,1.8l-1.1,1.7
				L504,264c-0.2-0.1-0.7-0.2-0.9-0.1l-1.9,0.6c-0.1,0-0.3,0.3-0.3,0.4L500,275.6z"/>
		</g>
		<g>
			<path class="st6" d="M483.4,276.3"/>
		</g>
		<g>
			<path class="st0" d="M480.6,262.7l-1-1.7l2.2-1.3c0.2-0.1,0.4-0.4,0.4-0.6v-1.5c0-0.2-0.2-0.5-0.4-0.6l-2.2-1.3l1-1.7l2.2,1.3
				c0.8,0.5,1.4,1.5,1.4,2.4v1.5c0,0.9-0.6,1.9-1.4,2.4L480.6,262.7z"/>
		</g>
		<g>
			<path class="st0" d="M507.6,262.7l-2.2-1.3c-0.8-0.5-1.4-1.5-1.4-2.4v-1.5c0-0.9,0.6-1.9,1.4-2.4l2.2-1.3l1,1.7l-2.2,1.3
				c-0.2,0.1-0.4,0.4-0.4,0.6v1.5c0,0.2,0.2,0.5,0.4,0.6l2.2,1.3L507.6,262.7z"/>
		</g>
		<g>
			<path class="st0" d="M498.6,261.9c-0.4,0-0.8-0.1-1.2-0.3l-1.5-0.9c-0.7-0.4-1.2-1.2-1.2-2v-1.7c0-0.8,0.5-1.6,1.2-2l1.5-0.9
				c0.7-0.4,1.7-0.4,2.4,0l1.5,0.9c0.7,0.4,1.2,1.2,1.2,2v1.7c0,0.8-0.5,1.6-1.2,2l-1.5,0.9C499.4,261.8,499,261.9,498.6,261.9z
				 M496.7,256.9v1.7c0,0.1,0.1,0.3,0.2,0.3l1.5,0.9c0.1,0,0.3,0,0.4,0l1.5-0.9c0.1,0,0.2-0.2,0.2-0.3v-1.7c0-0.1-0.1-0.3-0.2-0.3
				l-1.5-0.9c-0.1,0-0.3,0-0.4,0l-1.5,0.9C496.8,256.7,496.7,256.9,496.7,256.9z"/>
		</g>
		<g>
			<path class="st0" d="M488.9,261.9c-0.4,0-0.8-0.1-1.2-0.3l-1.5-0.9c-0.7-0.4-1.2-1.2-1.2-2v-1.7c0-0.8,0.5-1.6,1.2-2l1.5-0.9
				c0.7-0.4,1.7-0.4,2.4,0l1.5,0.9c0.7,0.4,1.2,1.2,1.2,2v1.7c0,0.8-0.5,1.6-1.2,2l-1.5,0.9C489.8,261.8,489.3,261.9,488.9,261.9z
				 M487.1,256.9v1.7c0,0.1,0.1,0.3,0.2,0.3l1.5,0.9c0.1,0,0.3,0,0.4,0l1.5-0.9c0.1,0,0.2-0.2,0.2-0.3v-1.7c0-0.1-0.1-0.3-0.2-0.3
				l-1.5-0.9c-0.1,0-0.3,0-0.4,0l-1.5,0.9C487.2,256.7,487.1,256.9,487.1,256.9z"/>
		</g>
		<g>
			<path class="st0" d="M503.3,253.6c-0.5,0-1-0.2-1.4-0.4l-1.4-0.7c-0.8-0.4-1.4-1.4-1.5-2.3l-0.1-2.1c0-0.6,0.4-1,0.9-1
				c0.5,0,1,0.4,1.1,0.9l0.1,2.1c0,0.2,0.2,0.5,0.4,0.6l1.4,0.7c0.2,0.1,0.3,0.1,0.4,0.1c0.4-0.2,0.9-0.1,1.2,0.3
				c0.3,0.4,0.3,1.1-0.2,1.4C504,253.5,503.6,253.6,503.3,253.6z"/>
		</g>
		<g>
			<path class="st0" d="M493.7,275.9c-6.1,0-12.7-1.9-12.7-4.9c0-0.6,0.4-1,1-1s1,0.4,1,1c0,0.8,4.3,2.9,10.7,2.9
				c6.6,0,11-2.1,11.1-2.9c0-0.5,0.5-1,1-1c0.5,0,1,0.4,1,1C506.8,274.3,499,275.9,493.7,275.9z"/>
		</g>
	</g>
</g>
<g>
	<g id="beer_glass_2_6_">
		<g>
			<path class="st0" d="M583.5,242.9c-5.4,0-11.3-1.3-11.3-4.3c0-2.9,5.8-4.3,11.3-4.3c5.4,0,11.3,1.3,11.3,4.3
				C594.7,241.6,588.9,242.9,583.5,242.9z M583.5,236.4c-6,0-9.3,1.6-9.3,2.3s3.2,2.3,9.3,2.3c6,0,9.3-1.6,9.3-2.3
				S589.5,236.4,583.5,236.4z"/>
		</g>
		<g>
			<path class="st0" d="M586.8,277.5h-2v-16c0-0.3-0.2-0.8-0.4-0.9l-0.6-0.5c0,0-0.1,0-0.1,0l-0.6,0.5c-0.2,0.2-0.4,0.7-0.4,0.9v16
				h-2v-16c0-0.8,0.4-1.8,1.1-2.4l0.6-0.5c0.8-0.7,2-0.7,2.8,0l0.6,0.5c0.6,0.6,1.1,1.6,1.1,2.4V277.5z"/>
		</g>
		<g>
			<path class="st0" d="M590.8,277.5h-2v-16c0-0.3-0.2-0.8-0.4-0.9l-0.6-0.5c0,0-0.1,0-0.1,0l-0.6,0.5c-0.2,0.2-0.4,0.7-0.4,0.9v16
				h-2v-16c0-0.8,0.4-1.8,1.1-2.4l0.6-0.5c0.8-0.7,2-0.7,2.8,0l0.6,0.5c0.6,0.6,1.1,1.6,1.1,2.4V277.5z"/>
		</g>
		<g>
			<path class="st0" d="M582.8,277.5h-2v-16c0-0.3-0.2-0.8-0.4-0.9l-0.6-0.5c0,0-0.1,0-0.1,0l-0.6,0.5c-0.2,0.2-0.4,0.7-0.4,0.9v16
				h-2v-16c0-0.8,0.4-1.8,1.1-2.4l0.6-0.5c0.8-0.7,2-0.7,2.8,0l0.6,0.5c0.6,0.6,1.1,1.6,1.1,2.4V277.5z"/>
		</g>
		<g>
			<path class="st0" d="M578.8,277.5h-2v-16c0-0.3-0.2-0.8-0.4-0.9l-0.6-0.5c0,0-0.1,0-0.1,0l-0.6,0.5c-0.2,0.2-0.5,0.8-0.6,1.1
				l-0.8,6l-2-0.3l0.8-6c0.1-0.8,0.6-1.7,1.2-2.3l0.6-0.5c0.8-0.7,2-0.7,2.8,0l0.6,0.5c0.6,0.6,1.1,1.6,1.1,2.4V277.5z"/>
		</g>
		<g>
			<path class="st0" d="M590.7,277.5h-2v-16c0-0.8,0.4-1.8,1.1-2.4l0.6-0.5c0.8-0.7,2-0.7,2.8,0l0.6,0.5c0.6,0.6,1.1,1.6,1.1,2.4
				l0.4,5.9l-2,0.1l-0.4-6c0-0.3-0.2-0.8-0.4-1l-0.6-0.5c0,0-0.1,0-0.1,0l-0.6,0.5c-0.2,0.2-0.4,0.7-0.4,0.9V277.5z"/>
		</g>
		<g>
			<path class="st0" d="M583.7,279.4h-0.5c-5.7,0-11.9-1.4-12.2-4.3c-0.2-0.6-0.4-1.1-0.6-1.7c-0.2-0.5,0.1-1.1,0.6-1.3
				c0.5-0.2,1.1,0.1,1.3,0.6c0.2,0.6,0.4,1.2,0.7,1.8c0,0.1,0.1,0.3,0.1,0.4c0,0.8,3.5,2.6,10.2,2.6h0.5c6.7,0,10.2-1.8,10.2-2.6
				c0-0.1,0-0.3,0.1-0.4c0.2-0.6,0.5-1.2,0.7-1.8c0.2-0.5,0.7-0.8,1.3-0.6c0.5,0.2,0.8,0.7,0.6,1.3c-0.2,0.6-0.4,1.2-0.6,1.7
				C595.6,278.1,589.4,279.4,583.7,279.4z"/>
		</g>
		<g>
			<g>
				<path class="st0" d="M583.4,277.9c-5.5,0-13.2-1.7-13.2-4.9c0-0.2,0.1-0.4,0.1-0.5c1.5-2.5,1.8-9.6,1.8-12.1v-21.8
					c0-0.6,0.4-1,1-1s1,0.4,1,1v21.8c0,0.4,0.1,9-1.9,12.8c0.6,0.9,4.9,2.7,11.1,2.7c6.5,0,11.1-2.1,11.2-2.9c0-0.5,0.5-1,1-1
					c0.5,0,1,0.4,1,1C596.6,276.2,588.9,277.9,583.4,277.9z"/>
			</g>
			<g>
				<path class="st0" d="M595.7,274c-0.3,0-0.7-0.2-0.9-0.5c-2.2-3.5-2.1-12.8-2.1-13.2v-21.8c0-0.6,0.4-1,1-1s1,0.4,1,1v21.8
					c0,2.5,0.2,9.6,1.8,12.1c0.3,0.5,0.1,1.1-0.3,1.4C596,274,595.9,274,595.7,274z"/>
			</g>
		</g>
		<g>
			<path class="st0" d="M594.7,245.4l6.7,0.3l0.1,0c0.5,0,1,0.5,0.9,1l0,0l-1,11.5c0,0.2-0.1,0.4-0.3,0.6l0,0l-6,6
				c-0.4,0.4-1.1,0.4-1.6,0c-0.4-0.4-0.4-1.1,0-1.6c0,0,0,0,0,0l6.2-5.8l-0.3,0.6l1-11.5l1,1.1l-6.6,0.6c-0.8,0.1-1.5-0.5-1.6-1.3
				c-0.1-0.8,0.5-1.5,1.3-1.6C594.5,245.4,594.6,245.4,594.7,245.4z"/>
		</g>
		<g>
			<path class="st0" d="M590.3,256.9c-0.6,0-1-0.4-1-1v-11.4c0-0.6,0.4-1,1-1s1,0.4,1,1v11.4C591.3,256.5,590.8,256.9,590.3,256.9z"
				/>
		</g>
	</g>
</g>
<g>
	<g id="beer_glass_3_6_">
		<g>
			<path class="st0" d="M674.9,281.1c-5.1,0-10.5-1.3-10.5-4c0-2.4,4.2-3.6,8.1-3.9l0.2,2c-4.3,0.3-6.2,1.5-6.3,1.9
				c0.1,0.6,3.1,2,8.5,2c5.4,0,8.4-1.4,8.5-2c-0.1-0.4-2-1.6-6.3-1.9l0.2-2c3.9,0.3,8.1,1.5,8.1,3.9
				C685.4,279.8,679.9,281.1,674.9,281.1z"/>
		</g>
		<g>
			<path class="st0" d="M677.4,277.1c-0.6,0-1-0.4-1-1c0-9.7,6.7-37.3,7-38.4c0.1-0.5,0.7-0.9,1.2-0.7c0.5,0.1,0.9,0.7,0.7,1.2
				c-0.1,0.3-7,28.5-7,38C678.4,276.6,677.9,277.1,677.4,277.1z"/>
		</g>
		<g>
			<path class="st0" d="M672.4,277.1c-0.6,0-1-0.4-1-1c0-9.5-6.9-37.7-7-38c-0.1-0.5,0.2-1.1,0.7-1.2c0.5-0.1,1.1,0.2,1.2,0.7
				c0.3,1.2,7,28.7,7,38.4C673.4,276.6,673,277.1,672.4,277.1z"/>
		</g>
		<g>
			<path class="st0" d="M676.1,261.3c-0.1,0-0.1,0-0.2,0c-0.5-0.1-0.9-0.6-0.8-1.2l0.3-1.4c0.1-0.5,0.6-0.9,1.2-0.8
				c0.5,0.1,0.9,0.6,0.8,1.2l-0.3,1.4C677,261,676.6,261.3,676.1,261.3z"/>
		</g>
		<g>
			<path class="st0" d="M676.8,257.5c-0.1,0-0.1,0-0.2,0c-0.5-0.1-0.9-0.6-0.8-1.2l0.8-3.8c0.7-3.7,1.4-7.3,2-9.8
				c0.1-0.5,0.7-0.9,1.2-0.7c0.5,0.1,0.9,0.7,0.7,1.2c-0.6,2.5-1.3,6-2,9.7l-0.8,3.8C677.7,257.1,677.3,257.5,676.8,257.5z"/>
		</g>
		<g>
			<path class="st0" d="M674.9,240.6c-4.1,0-11-0.8-11-4c0-3.1,6.9-4,11-4c4.1,0,11,0.8,11,4C685.9,239.8,679,240.6,674.9,240.6z
				 M665.9,236.7c0.3,0.7,3.6,2,9,2c5.4,0,8.8-1.3,9-2c-0.2-0.6-3.6-2-9-2C669.5,234.7,666.1,236,665.9,236.7z"/>
		</g>
	</g>
</g>
<g>
	<g id="irish_coffee_6_">
		<g>
			<path class="st0" d="M583.9,457.3c-5.1,0-10.5-1.3-10.5-4c0-1,0.8-2.5,4.5-3.4c0.5-0.1,1.1,0.2,1.2,0.7s-0.2,1.1-0.7,1.2
				c-2.4,0.6-2.9,1.3-3,1.4c0.1,0.6,3.1,2,8.5,2s8.4-1.4,8.5-2c0-0.1-0.6-0.9-2.9-1.4c-0.5-0.1-0.9-0.7-0.7-1.2
				c0.1-0.5,0.7-0.9,1.2-0.7c3.7,0.9,4.5,2.3,4.5,3.4C594.4,456.1,588.9,457.3,583.9,457.3z"/>
		</g>
		<g>
			<path class="st0" d="M583.9,448.3c-2.3,0-4.7-0.6-4.7-2.2c0-0.6,0.4-1.4,2.1-1.9l0.5,1.8c0.5,0.1,1.2,0.3,2.2,0.3
				c0.8,0,1.5-0.1,2-0.2l0.5-1.9c1.9,0.4,2.3,1.3,2.3,1.9C588.6,447.7,586.2,448.3,583.9,448.3z"/>
		</g>
		<g>
			<path class="st0" d="M583.9,451.2c-2.3,0-4.7-0.6-4.7-2.2c0-0.6,0.3-1.3,1.8-1.8l0.5,1.7c0.5,0.2,1.3,0.3,2.4,0.3
				s1.9-0.2,2.4-0.3l0.5-1.7c1.5,0.5,1.8,1.2,1.8,1.8C588.6,450.6,586.2,451.2,583.9,451.2z"/>
		</g>
		<g>
			<path class="st0" d="M583.9,426.6c-5.3,0-11-1.3-11-4.2c0-2.9,5.7-4.2,11-4.2s11,1.3,11,4.2C594.9,425.2,589.2,426.6,583.9,426.6
				z M583.9,420.2c-5.9,0-9,1.6-9,2.2c0,0.6,3.2,2.2,9,2.2s9-1.6,9-2.2C592.9,421.7,589.8,420.2,583.9,420.2z"/>
		</g>
		<g>
			<g>
				<path class="st0" d="M583.9,445.1c-3.6,0-6.1-0.8-7.6-2.3c-0.8-0.8-1.2-1.9-1.2-3c0.1-2.5-0.1-12.3-1.7-15.9
					c-0.2-0.5,0-1.1,0.5-1.3c0.5-0.2,1.1,0,1.3,0.5c1.9,4.2,1.9,14.9,1.8,16.8c0,0.6,0.2,1.1,0.6,1.6c1,1.1,3.2,1.6,6.1,1.6
					c0.6,0,1,0.4,1,1S584.4,445.1,583.9,445.1z"/>
			</g>
			<g>
				<path class="st0" d="M583.9,445.1c-0.6,0-1-0.4-1-1s0.4-1,1-1c2.9,0,5.1-0.6,6.1-1.6c0.4-0.5,0.6-1,0.6-1.6
					c-0.1-1.9-0.1-12.5,1.8-16.8c0.2-0.5,0.8-0.7,1.3-0.5c0.5,0.2,0.7,0.8,0.5,1.3c-1.6,3.6-1.7,13.4-1.7,15.9c0,1.1-0.4,2.2-1.2,3
					C590,444.3,587.5,445.1,583.9,445.1z"/>
			</g>
		</g>
		<g>
			<path class="st0" d="M588.1,453.7c-0.2,0-0.5-0.1-0.7-0.3c-0.5-0.5-2.1-2.1-1.5-3.6c0.2-0.5,0.8-0.8,1.3-0.6
				c0.5,0.2,0.8,0.8,0.6,1.3c0,0.3,0.5,1,1,1.5c0.4,0.4,0.4,1,0.1,1.4C588.6,453.6,588.3,453.7,588.1,453.7z"/>
		</g>
		<g>
			<path class="st0" d="M579.7,453.7c-0.3,0-0.5-0.1-0.7-0.3c-0.4-0.4-0.4-1,0.1-1.4c0.5-0.5,1-1.2,1-1.5c-0.2-0.5,0.1-1.1,0.6-1.3
				c0.5-0.2,1.1,0.1,1.3,0.6c0.6,1.5-1,3.1-1.5,3.6C580.2,453.6,580,453.7,579.7,453.7z"/>
		</g>
		<g>
			<path class="st0" d="M592.5,439.9c-0.5,0-1-0.4-1-1c0-0.6,0.4-1,1-1c3.7-0.2,4.3-2.3,5.1-5.2c0.1-0.3,0.2-0.6,0.3-0.9
				c0.2-0.8,0.9-3.2,0.6-3.7c0-0.1-0.3-0.1-0.9-0.1c-2.4,0.3-4.4,1.7-4.4,1.7c-0.4,0.3-1.1,0.2-1.4-0.2s-0.2-1.1,0.2-1.4
				c0.1-0.1,2.4-1.8,5.4-2.1c1.2-0.1,2.1,0.1,2.6,0.8c1,1.2,0.5,3.1-0.2,5.5c-0.1,0.3-0.2,0.6-0.3,0.9
				C598.6,436.1,597.6,439.7,592.5,439.9C592.5,439.9,592.5,439.9,592.5,439.9z"/>
		</g>
		<g>
			<path class="st0" d="M587.8,437.7C587.7,437.7,587.7,437.7,587.8,437.7c-0.6,0-1-0.5-1-1c0.1-2.5,0.3-6,0.8-9
				c0.1-0.5,0.6-0.9,1.2-0.8c0.5,0.1,0.9,0.6,0.8,1.2c-0.5,2.8-0.7,6.3-0.8,8.7C588.7,437.3,588.3,437.7,587.8,437.7z"/>
		</g>
	</g>
</g>
<g>
	<g id="coffee_latte_glass_6_">
		<g>
			<path class="st0" d="M313.9,458.4c-5.7,0-11.8-1.4-11.8-4.4c0-2.8,5.2-3.8,7.4-4.2l0.3,2c-4.3,0.6-5.7,1.8-5.7,2.2
				c0,0.7,3.4,2.4,9.8,2.4s9.8-1.7,9.8-2.4c0-0.3-1.3-1.5-5.2-2.1l0.3-2c4.4,0.7,6.9,2.2,6.9,4.1C325.7,457,319.6,458.4,313.9,458.4
				z"/>
		</g>
		<g>
			<path class="st0" d="M317.4,453.5c-0.1,0-0.1,0-0.2,0c-0.5-0.1-0.9-0.6-0.8-1.2l6-29.8c0.1-0.5,0.6-0.9,1.2-0.8
				c0.5,0.1,0.9,0.6,0.8,1.2l-6,29.8C318.3,453.1,317.8,453.5,317.4,453.5z"/>
		</g>
		<g>
			<path class="st0" d="M315.7,444.9c-0.1,0-0.1,0-0.2,0c-0.5-0.1-0.9-0.6-0.8-1.2l0.6-3.4c0.1-0.5,0.6-0.9,1.2-0.8
				c0.5,0.1,0.9,0.6,0.8,1.2l-0.6,3.4C316.6,444.5,316.2,444.9,315.7,444.9z"/>
		</g>
		<g>
			<path class="st2" d="M317.5,439.5"/>
		</g>
		<g>
			<path class="st0" d="M316.7,438.6c-0.1,0-0.1,0-0.2,0c-0.5-0.1-0.9-0.6-0.8-1.2l1.8-10.6c0.1-0.5,0.6-0.9,1.2-0.8
				c0.5,0.1,0.9,0.6,0.8,1.2l-1.8,10.6C317.6,438.3,317.2,438.6,316.7,438.6z"/>
		</g>
		<g>
			<path class="st0" d="M310.4,453.5c-0.5,0-0.9-0.3-1-0.8l-6-29.8c-0.1-0.5,0.2-1.1,0.8-1.2c0.5-0.1,1.1,0.2,1.2,0.8l6,29.8
				c0.1,0.5-0.2,1.1-0.8,1.2C310.5,453.4,310.5,453.5,310.4,453.5z"/>
		</g>
		<g>
			<path class="st0" d="M313.9,425c-1.8,0-11-0.2-11-3.3c0-3.2,9.2-3.3,11-3.3c1.8,0,11,0.2,11,3.3C324.9,424.9,315.7,425,313.9,425
				z M305.1,421.7c0.9,0.5,3.9,1.3,8.8,1.3c4.9,0,7.9-0.8,8.8-1.3c-0.9-0.5-3.9-1.3-8.8-1.3C309,420.4,306,421.2,305.1,421.7z"/>
		</g>
		<g>
			<path class="st0" d="M320.4,446.7c-0.4,0-0.8-0.2-0.9-0.6c-0.2-0.5,0-1.1,0.6-1.3c1.4-0.6,2.8-1.4,4.1-2.5
				c4.3-3.4,6.5-8.4,5-10.8c-0.9-1.5-3.4-1.7-6.3-0.6c-0.5,0.2-1.1,0-1.3-0.6c-0.2-0.5,0-1.1,0.6-1.3c3.9-1.6,7.2-1,8.7,1.3
				c2.1,3.4-0.3,9.3-5.4,13.5c-1.5,1.2-3,2.1-4.6,2.8C320.6,446.7,320.5,446.7,320.4,446.7z"/>
		</g>
	</g>
</g>
<g>
	<g id="sampagne_glass_6_">
		<g>
			<path class="st0" d="M134.3,431.1c-3.7,0-15.6-0.3-15.6-3.5c0-3.2,11.9-3.5,15.6-3.5s15.6,0.3,15.6,3.5
				C149.9,430.9,138,431.1,134.3,431.1z M121.1,427.6c1.5,0.6,6,1.5,13.2,1.5s11.7-0.9,13.2-1.5c-1.5-0.6-6-1.5-13.2-1.5
				C127.1,426.2,122.6,427,121.1,427.6z"/>
		</g>
		<g>
			<path class="st0" d="M144.2,433.4c-0.5,0-0.9-0.4-1-0.9c0-0.5,0.4-1,0.9-1.1c1.5-0.1,2.2-0.3,2.5-0.5c0.5-0.2,1.1,0,1.3,0.5
				c0.2,0.5,0,1.1-0.5,1.3C146.7,433,145.7,433.2,144.2,433.4C144.3,433.4,144.3,433.4,144.2,433.4z"/>
		</g>
		<g>
			<path class="st0" d="M134.3,454.7c-5.1,0-10.5-1.3-10.5-4s5.4-4,10.5-4s10.5,1.3,10.5,4S139.4,454.7,134.3,454.7z M125.8,450.6
				c0.1,0.6,3.1,2,8.5,2c5.4,0,8.4-1.4,8.5-2c-0.1-0.6-3.1-2-8.5-2C128.9,448.6,125.9,450,125.8,450.6z"/>
		</g>
		<g>
			<path class="st0" d="M134.3,440v-2c8,0,13.2-1.4,14.6-4c0.8-1.4,0.5-3.3-1-5.7l1.7-1c1.8,3,2.2,5.6,1,7.7
				C148.8,438.3,143.3,440,134.3,440z"/>
		</g>
		<g>
			<path class="st0" d="M134.3,440c-9,0-14.5-1.7-16.4-5c-1.2-2.1-0.8-4.7,1-7.7l1.7,1c-1.4,2.4-1.8,4.3-1,5.7c1.5,2.6,6.7,4,14.6,4
				V440z"/>
		</g>
		<g>
			<path class="st0" d="M134.3,450.5c-0.6,0-1-0.4-1-1V439c0-0.6,0.4-1,1-1s1,0.4,1,1v10.6C135.3,450.1,134.9,450.5,134.3,450.5z"/>
		</g>
	</g>
</g>
<g>
	<g id="gold_coffee_6_">
		<g>
			<path class="st0" d="M134.4,161.7c-5.9,0-12.2-1.4-12.2-4.6c0-3.1,6.3-4.6,12.2-4.6s12.2,1.4,12.2,4.6
				C146.6,160.2,140.2,161.7,134.4,161.7z M134.4,154.5c-6.7,0-10.2,1.8-10.2,2.6s3.5,2.6,10.2,2.6s10.2-1.8,10.2-2.6
				S141.1,154.5,134.4,154.5z"/>
		</g>
		<g>
			<path class="st0" d="M134.4,181.9c-8,0-23.2-1.2-23.2-5.9c0-3,6.3-4.5,11.5-5.2c0.5-0.1,1.1,0.3,1.1,0.9c0.1,0.5-0.3,1.1-0.9,1.1
				c-7.3,1-9.8,2.6-9.8,3.2c0,1.3,7.5,3.9,21.2,3.9s21.2-2.6,21.2-3.9c0-0.3-1.2-1.7-7.2-2.8c-0.5-0.1-0.9-0.6-0.8-1.2
				c0.1-0.5,0.6-0.9,1.2-0.8c5.9,1.1,8.8,2.7,8.8,4.8C157.6,180.7,142.4,181.9,134.4,181.9z"/>
		</g>
		<g>
			<path class="st0" d="M134.7,184.8c-9.1,0-16.1-3.2-19.5-5.2c-0.5-0.3-0.6-0.9-0.4-1.4c0.3-0.5,0.9-0.6,1.4-0.4
				c5.5,3.1,12.2,4.9,18.5,4.9c6.9,0,13.6-2.7,18-4.9c0.5-0.3,1.1-0.1,1.3,0.4c0.3,0.5,0.1,1.1-0.4,1.3
				C149,181.9,142,184.8,134.7,184.8z"/>
		</g>
		<g>
			<path class="st0" d="M119.2,178.1c-0.6,0-1-0.5-1-1c0-1.9,2.7-3.3,8.1-4.1c0.5-0.1,1.1,0.3,1.1,0.8c0.1,0.5-0.3,1.1-0.8,1.1
				c-5,0.7-6.3,1.9-6.4,2.1C120.2,177.7,119.7,178.1,119.2,178.1z"/>
		</g>
		<g>
			<path class="st0" d="M149.9,178.1c-0.6,0-1-0.4-1-1c-0.1-0.2-1.3-1.3-5.9-2c-0.5-0.1-0.9-0.6-0.8-1.1c0.1-0.5,0.6-0.9,1.1-0.8
				c5,0.8,7.6,2.1,7.6,4C150.9,177.6,150.4,178.1,149.9,178.1z"/>
		</g>
		<g>
			<path class="st0" d="M134.4,178.9c-1.4,0-5.6-0.3-6.6-1.6c-0.3-0.3-0.4-0.8-0.3-1.2c0.1-0.6,0.3-1,0.5-1.3
				c0.3-0.7,0.5-1.1-2.7-4.7c-5.1-5.5-3.1-13.1-3-13.4c0.1-0.5,0.7-0.9,1.2-0.7c0.5,0.1,0.9,0.7,0.7,1.2c0,0.1-1.7,6.8,2.6,11.6
				c3.6,4,3.9,5.1,3.1,6.9c-0.1,0.2-0.2,0.3-0.2,0.5c0.7,0.3,2.7,0.8,4.8,0.8c2.2,0,4.1-0.5,4.8-0.8c-0.1-0.2-0.1-0.3-0.2-0.5
				c-0.9-1.8-0.6-2.9,3.1-6.9c4.3-4.7,2.6-11.5,2.6-11.6c-0.1-0.5,0.2-1.1,0.7-1.2c0.5-0.1,1.1,0.2,1.2,0.7c0.1,0.3,2,7.9-3,13.4
				c-3.3,3.6-3.1,4-2.7,4.7c0.2,0.3,0.3,0.7,0.5,1.2c0,0.1,0.1,0.2,0.1,0.3C141.3,178.9,134.6,178.9,134.4,178.9z"/>
		</g>
		<g>
			<path class="st0" d="M134.4,164.2c-4.7,0-9.1-0.9-11.9-2.3l0.9-1.8c2.4,1.3,6.5,2.1,10.9,2.1c4.5,0,8.7-0.8,11.1-2.2l1,1.7
				C143.8,163.3,139.2,164.2,134.4,164.2z"/>
		</g>
		<g>
			<path class="st0" d="M134.4,175.7c-2.1,0-4-0.4-5.7-1l0.8-1.9c1.4,0.6,3.1,0.9,4.9,0.9c1.8,0,3.5-0.3,4.9-0.9l0.7,1.9
				C138.4,175.4,136.4,175.7,134.4,175.7z"/>
		</g>
		<g>
			<path class="st0" d="M144.9,170c-0.4,0-0.8-0.2-0.9-0.6c-0.2-0.5,0-1.1,0.5-1.3c0,0,4.3-1.9,6.7-5.5c0.4-0.6,1-1.7,0.3-2.3
				c-0.7-0.6-2.3-0.6-3.5,0.4c-0.4,0.4-1.1,0.3-1.4-0.1c-0.4-0.4-0.3-1.1,0.1-1.4c1.8-1.5,4.6-1.7,6.1-0.3c0.5,0.4,1.9,2.1,0.1,4.9
				c-2.7,4.1-7.4,6.2-7.6,6.2C145.1,170,145,170,144.9,170z"/>
		</g>
	</g>
</g>
<g>
	<g id="vine_bottle_6_">
		<g>
			<path class="st0" d="M314.9,374.5c-3.8,0-7.6-1-7.6-3.1v-27.5c0-3.1,1.5-3.9,2.7-4.5c1-0.5,1.5-0.7,1.5-2.4v-13.8
				c0-0.6,0.4-1,1-1s1,0.4,1,1V337c0,2.9-1.5,3.7-2.6,4.2c-1,0.5-1.6,0.8-1.6,2.7v27.4c0.3,0.4,2.2,1.2,5.6,1.2s5.3-0.8,5.6-1.2
				v-27.4c0-1.9-0.6-2.2-1.6-2.7c-1.1-0.5-2.6-1.3-2.6-4.2v-13.8c0-0.6,0.4-1,1-1s1,0.4,1,1V337c0,1.7,0.5,2,1.5,2.4
				c1.1,0.6,2.7,1.3,2.7,4.5v27.5C322.5,373.5,318.7,374.5,314.9,374.5z"/>
		</g>
		<g>
			<path class="st0" d="M314.9,361c-3.8,0-7.6-1-7.6-3.1c0-0.6,0.4-1,1-1c0.5,0,1,0.4,1,0.9c0.3,0.4,2.2,1.2,5.6,1.2
				s5.3-0.8,5.6-1.2c0-0.5,0.5-0.9,1-0.9c0.6,0,1,0.4,1,1C322.5,360.1,318.7,361,314.9,361z"/>
		</g>
		<g>
			<path class="st0" d="M314.9,353.2c-3.8,0-7.6-1-7.6-3.1c0-0.6,0.4-1,1-1c0.5,0,1,0.4,1,0.9c0.3,0.4,2.2,1.2,5.6,1.2
				s5.3-0.8,5.6-1.2c0-0.5,0.5-0.9,1-0.9c0.6,0,1,0.4,1,1C322.5,352.3,318.7,353.2,314.9,353.2z"/>
		</g>
	</g>
</g>
<g>
	<g id="vine_bottle_2_13_">
		<g>
			<path class="st0" d="M404.9,374.5c-3.8,0-7.6-1-7.6-3.1v-17.5c0-2.6,1.1-6.9,2.1-10.9c1-3.8,2-7.7,2-9.9v-9.8c0-0.6,0.4-1,1-1
				s1,0.4,1,1v9.8c0,2.4-1,6.3-2.1,10.4c-1,4-2.1,8.1-2.1,10.4v17.4c0.3,0.4,2.2,1.2,5.6,1.2s5.3-0.8,5.6-1.2v-17.4
				c0-2.4-1.1-6.5-2.1-10.4c-1.1-4.1-2.1-8-2.1-10.4v-9.8c0-0.6,0.4-1,1-1s1,0.4,1,1v9.8c0,2.2,1,6.1,2,9.9
				c1.1,4.1,2.1,8.3,2.1,10.9v17.5C412.5,373.5,408.7,374.5,404.9,374.5z"/>
		</g>
		<g>
			<path class="st0" d="M404.9,367c-3.8,0-7.6-1-7.6-3.1c0-0.6,0.4-1,1-1c0.5,0,1,0.4,1,0.9c0.3,0.4,2.2,1.2,5.6,1.2
				s5.3-0.8,5.6-1.2c0-0.5,0.5-0.9,1-0.9c0.6,0,1,0.4,1,1C412.5,366.1,408.7,367,404.9,367z"/>
		</g>
		<g>
			<path class="st0" d="M404.9,359.2c-3.8,0-7.6-1-7.6-3.1c0-0.6,0.4-1,1-1c0.5,0,1,0.4,1,0.9c0.3,0.4,2.2,1.2,5.6,1.2
				s5.3-0.8,5.6-1.2c0-0.5,0.5-0.9,1-0.9c0.6,0,1,0.4,1,1C412.5,358.3,408.7,359.2,404.9,359.2z"/>
		</g>
	</g>
</g>
<g>
	<g id="vine_bottle_3_6_">
		<g>
			<path class="st0" d="M494.9,374.5c-3.7,0-7.5-0.9-7.6-3c-0.2-1.1-2-14.7-2-17.6c0-2.7,1.6-6.8,3.2-11.1c1.4-3.8,2.9-7.7,2.9-9.8
				v-9.8c0-0.6,0.4-1,1-1s1,0.4,1,1v9.8c0,2.5-1.5,6.4-3.1,10.5c-1.5,3.9-3.1,8-3.1,10.3c0,2.9,2,17.2,2,17.4c0,0,0,0,0,0
				c0.3,0.4,2.2,1.2,5.6,1.2c3.4,0,5.3-0.8,5.6-1.2c0,0,0,0,0,0c0-0.1,2-14.5,2-17.4c0-2.3-1.6-6.4-3.1-10.3
				c-1.6-4.1-3.1-8-3.1-10.5v-9.8c0-0.6,0.4-1,1-1s1,0.4,1,1v9.8c0,2.1,1.5,6,2.9,9.8c1.6,4.3,3.2,8.4,3.2,11.1
				c0,2.9-1.8,16.5-2,17.6C502.4,373.6,498.6,374.5,494.9,374.5z"/>
		</g>
		<g>
			<path class="st0" d="M488.5,360c-1.3,0-2.4-0.3-2.8-1.3c-0.2-0.5,0.1-1.1,0.6-1.3c0.5-0.2,1,0,1.2,0.5c0.5,0.3,2.9,0.2,6.7-1.2
				c5.6-2,7.7-3.3,8.2-3.8c0-0.4,0.3-0.8,0.7-0.9c0.5-0.2,1.1,0.1,1.3,0.6c0.4,1.2,0,2.5-9.5,6C494,358.9,490.9,360,488.5,360z"/>
		</g>
		<g>
			<path class="st0" d="M488.3,368.5c-0.2,0-0.4,0-0.6,0c-0.5,0-1-0.5-0.9-1.1c0-0.5,0.5-1,1.1-0.9c1.4,0.1,3.8-0.4,6.3-1.3l0.3-0.1
				c2.9-1,6.4-2.3,7.4-3.3c0.4-0.4,1-0.4,1.4,0c0.4,0.4,0.4,1,0,1.4c-1.3,1.3-4.6,2.5-8.1,3.8l-0.3,0.1
				C492.4,368,490,368.5,488.3,368.5z"/>
		</g>
	</g>
</g>
<g>
	<g id="vine_bottle_2_12_">
		<g>
			<path class="st0" d="M584.9,374.5c-3.8,0-7.6-1-7.6-3.1v-17.5c0-2.6,1.1-6.9,2.1-10.9c1-3.8,2-7.7,2-9.9v-9.8c0-0.6,0.4-1,1-1
				s1,0.4,1,1v9.8c0,2.4-1,6.3-2.1,10.4c-1,4-2.1,8.1-2.1,10.4v17.4c0.3,0.4,2.2,1.2,5.6,1.2s5.3-0.8,5.6-1.2v-17.4
				c0-2.4-1.1-6.5-2.1-10.4c-1.1-4.1-2.1-8-2.1-10.4v-9.8c0-0.6,0.4-1,1-1s1,0.4,1,1v9.8c0,2.2,1,6.1,2,9.9
				c1.1,4.1,2.1,8.3,2.1,10.9v17.5C592.5,373.5,588.7,374.5,584.9,374.5z"/>
		</g>
		<g>
			<path class="st0" d="M581.5,365.7c-0.1,0-0.1,0-0.2,0c-3.3-0.6-4.1-1.9-4.1-2.8c0-0.6,0.4-1,1-1c0.5,0,1,0.4,1,0.9
				c0.1,0.2,0.8,0.6,2.4,0.9c0.5,0.1,0.9,0.6,0.8,1.2C582.4,365.4,582,365.7,581.5,365.7z"/>
		</g>
		<g>
			<path class="st0" d="M588.2,365.7c-0.5,0-0.9-0.3-1-0.8c-0.1-0.5,0.3-1.1,0.8-1.2c1.6-0.3,2.3-0.7,2.4-0.9c0-0.5,0.5-0.9,1-0.9
				c0.6,0,1,0.4,1,1c0,0.9-0.7,2.2-4.1,2.8C588.4,365.7,588.3,365.7,588.2,365.7z"/>
		</g>
		<g>
			<path class="st0" d="M581.7,361c-0.1,0-0.1,0-0.2,0c-2.7-0.5-4.2-1.5-4.2-2.8c0-0.6,0.4-1,1-1c0.5,0,1,0.4,1,0.9
				c0.2,0.2,0.9,0.7,2.6,0.9c0.5,0.1,0.9,0.6,0.8,1.2C582.6,360.6,582.1,361,581.7,361z"/>
		</g>
		<g>
			<path class="st0" d="M588.1,361c-0.5,0-0.9-0.3-1-0.8c-0.1-0.5,0.3-1.1,0.8-1.2c1.6-0.3,2.4-0.7,2.6-0.9c0-0.5,0.5-0.9,1-0.9
				c0.6,0,1,0.4,1,1c0,1.3-1.5,2.3-4.2,2.8C588.2,360.9,588.2,361,588.1,361z"/>
		</g>
	</g>
</g>
<g>
	<g id="sekt_bottle_6_">
		<g>
			<path class="st0" d="M674.9,374.3c-4.3,0-8.7-1.1-8.7-3.4v-20.4c0-3.2,1.3-5.7,2.6-8.1c1.2-2.2,2.3-4.3,2.3-6.7v-3.8
				c0-0.6,0.4-1,1-1s1,0.4,1,1v3.8c0,2.9-1.3,5.3-2.5,7.7c-1.2,2.3-2.3,4.5-2.3,7.1v20.4c0.2,0.4,2.5,1.4,6.7,1.4s6.5-1.1,6.7-1.5
				l0-20.3c0-2.7-1.1-4.8-2.3-7.1c-1.2-2.3-2.5-4.7-2.5-7.7v-3.8c0-0.6,0.4-1,1-1s1,0.4,1,1v3.8c0,2.5,1.1,4.5,2.3,6.7
				c1.3,2.4,2.6,4.9,2.6,8.1v20.4C683.6,373.2,679.2,374.3,674.9,374.3z"/>
		</g>
		<g>
			<path class="st0" d="M674.9,365.6c-4.3,0-8.7-1.1-8.7-3.4c0-0.6,0.4-1,1-1s1,0.4,1,1c0.2,0.4,2.5,1.4,6.7,1.4s6.5-1.1,6.7-1.5
				c0-0.6,0.4-1,1-1c0.6,0,1,0.5,1,1C683.6,364.5,679.2,365.6,674.9,365.6z"/>
		</g>
		<g>
			<path class="st0" d="M674.9,356.5c-4.3,0-8.7-1.1-8.7-3.4c0-0.6,0.4-1,1-1s1,0.4,1,1c0.2,0.4,2.5,1.4,6.7,1.4s6.5-1.1,6.7-1.5
				c0-0.6,0.4-1,1-1s1,0.5,1,1C683.6,355.4,679.2,356.5,674.9,356.5z"/>
		</g>
		<g>
			<polyline class="st0" points="670.4,342.9 674.9,347.4 674.9,344.9 671.1,341.4 			"/>
		</g>
		<g>
			<polyline class="st0" points="679.4,342.9 674.9,347.4 674.9,344.9 678.7,341.4 			"/>
		</g>
	</g>
</g>
<g>
	<g>
		<g id="cognac_bottle_6_">
			<g>
				<path class="st0" d="M684,457.5h-18.1l-0.4-0.1c-0.2-0.1-4.9-2.4-4.9-10.8c0-4.4,2.7-7.2,5.1-9.6c1.9-2,3.6-3.7,3.6-5.9
					c0-0.6,0.4-1,1-1s1,0.4,1,1c0,3.1-2.1,5.3-4.2,7.3c-2.2,2.3-4.5,4.6-4.5,8.2c0,6.3,2.9,8.5,3.6,8.9h17.6
					c0.7-0.5,3.6-2.7,3.6-8.9c0-3.6-2.3-5.9-4.5-8.2c-2.1-2.1-4.2-4.3-4.2-7.3c0-0.6,0.4-1,1-1s1,0.4,1,1c0,2.3,1.7,4,3.6,5.9
					c2.4,2.4,5.1,5.2,5.1,9.6c0,8.4-4.7,10.8-4.9,10.8L684,457.5z"/>
			</g>
			<g>
				<path class="st0" d="M677.3,433.7h-4.7c-0.2,0-0.4-0.1-0.6-0.2l-2.4-1.7c-0.5-0.3-0.6-0.9-0.2-1.4c0.3-0.5,0.9-0.6,1.4-0.2
					l2.1,1.5h4.1l2.1-1.5c0.5-0.3,1.1-0.2,1.4,0.2c0.3,0.5,0.2,1.1-0.2,1.4l-2.4,1.7C677.7,433.7,677.5,433.7,677.3,433.7z"/>
			</g>
			<g>
				<path class="st0" d="M679.6,432.1c-0.4,0-0.8-0.3-1-0.7l-1.8-6.4h-3.9l-1.8,6.4c-0.1,0.5-0.7,0.8-1.2,0.7
					c-0.5-0.1-0.8-0.7-0.7-1.2l2-7.1c0.1-0.4,0.5-0.7,1-0.7h5.4c0.4,0,0.8,0.3,1,0.7l2,7.1c0.1,0.5-0.2,1.1-0.7,1.2
					C679.8,432,679.7,432.1,679.6,432.1z"/>
			</g>
			<g>
				<g>
					<path class="st0" d="M676.9,423.9c-0.2,0-0.5-0.1-0.7-0.3c-0.4-0.4-0.4-1-0.1-1.4l2.5-2.8l-0.6-0.9h-6.1l-0.6,0.9l2.5,2.8
						c0.4,0.4,0.3,1-0.1,1.4c-0.4,0.4-1,0.3-1.4-0.1l-3.6-4l2.2-3h8.2l2.2,3l-3.6,4C677.4,423.8,677.1,423.9,676.9,423.9z"/>
				</g>
			</g>
		</g>
		<g>
			<path class="st0" d="M686.8,454.5c-0.2,0-0.3,0-0.5-0.1l-7.9-4c-1,0.8-2.2,1.2-3.6,1.2c-3.2,0-5.8-2.6-5.8-5.8c0,0,0-0.1,0-0.1
				l-6.5-3.3c-0.3-0.1-0.5-0.4-0.5-0.7c-0.1-0.3,0-0.6,0.2-0.8l1.7-2.1c0.3-0.4,0.8-0.5,1.2-0.3l5.9,2.9c1.1-0.9,2.4-1.5,3.8-1.5
				c3.2,0,5.8,2.6,5.8,5.8c0,0.2,0,0.3,0,0.5l7.6,3.8c0.5,0.2,0.7,0.8,0.5,1.3l-1,2.6c-0.1,0.3-0.3,0.5-0.6,0.6
				C687,454.5,686.9,454.5,686.8,454.5z M678.3,448.2c0.2,0,0.3,0,0.5,0.1l7.5,3.8l0.3-0.7l-7.4-3.7c-0.4-0.2-0.6-0.7-0.5-1.1
				c0.1-0.3,0.1-0.5,0.1-0.8c0-2.1-1.7-3.8-3.8-3.8c-1.1,0-2.1,0.5-2.9,1.3c-0.3,0.3-0.8,0.4-1.2,0.2l-5.8-2.9l-0.4,0.5l6,3
				c0.4,0.2,0.6,0.6,0.5,1.1c0,0.2,0,0.4,0,0.6c0,2.1,1.7,3.8,3.8,3.8c1,0,2-0.4,2.7-1.1C677.8,448.3,678,448.2,678.3,448.2z"/>
		</g>
		<g>
			<path class="st0" d="M674.9,448.5c-1.5,0-2.7-1.2-2.7-2.7c0-1.5,1.2-2.7,2.7-2.7s2.7,1.2,2.7,2.7
				C677.6,447.3,676.4,448.5,674.9,448.5z M674.9,445.1c-0.4,0-0.7,0.3-0.7,0.7c0,0.4,0.3,0.7,0.7,0.7s0.7-0.3,0.7-0.7
				C675.6,445.4,675.3,445.1,674.9,445.1z"/>
		</g>
	</g>
</g>
<g>
	<path class="st0" d="M584.9,367.1c-2.5,0-4.6-2.1-4.6-4.6s2.1-4.6,4.6-4.6s4.6,2.1,4.6,4.6S587.4,367.1,584.9,367.1z M584.9,359.9
		c-1.4,0-2.6,1.2-2.6,2.6s1.2,2.6,2.6,2.6s2.6-1.2,2.6-2.6S586.3,359.9,584.9,359.9z"/>
</g>
<g>
	<path class="st0" d="M314.9,324.4c-2.4,0-4.2-1.1-4.2-2.5s1.8-2.5,4.2-2.5s4.2,1.1,4.2,2.5S317.3,324.4,314.9,324.4z M312.8,321.9
		c0.3,0.2,1,0.5,2.1,0.5s1.8-0.3,2.1-0.5c-0.3-0.2-1-0.5-2.1-0.5S313.1,321.7,312.8,321.9z"/>
</g>
<g>
	<path class="st0" d="M314.9,327.4c-1.1,0-2.2-0.2-2.9-0.7c-0.5-0.3-0.6-0.9-0.4-1.4c0.3-0.5,0.9-0.6,1.4-0.4c0.9,0.5,3,0.5,3.9,0
		c0.5-0.3,1.1-0.1,1.4,0.4c0.3,0.5,0.1,1.1-0.4,1.4C317.1,327.2,316,327.4,314.9,327.4z"/>
</g>
<g>
	<path class="st0" d="M404.9,324.4c-2.4,0-4.2-1.1-4.2-2.5s1.8-2.5,4.2-2.5s4.2,1.1,4.2,2.5S407.3,324.4,404.9,324.4z M402.8,321.9
		c0.3,0.2,1,0.5,2.1,0.5s1.8-0.3,2.1-0.5c-0.3-0.2-1-0.5-2.1-0.5S403.1,321.7,402.8,321.9z"/>
</g>
<g>
	<path class="st0" d="M404.9,327.4c-1.1,0-2.2-0.2-2.9-0.7c-0.5-0.3-0.6-0.9-0.4-1.4c0.3-0.5,0.9-0.6,1.4-0.4c0.9,0.5,3,0.5,3.9,0
		c0.5-0.3,1.1-0.1,1.4,0.4c0.3,0.5,0.1,1.1-0.4,1.4C407.1,327.2,406,327.4,404.9,327.4z"/>
</g>
<g>
	<path class="st0" d="M494.9,324.4c-2.4,0-4.2-1.1-4.2-2.5s1.8-2.5,4.2-2.5s4.2,1.1,4.2,2.5S497.3,324.4,494.9,324.4z M492.8,321.9
		c0.3,0.2,1,0.5,2.1,0.5s1.8-0.3,2.1-0.5c-0.3-0.2-1-0.5-2.1-0.5S493.1,321.7,492.8,321.9z"/>
</g>
<g>
	<path class="st0" d="M494.9,327.4c-1.1,0-2.2-0.2-2.9-0.7c-0.5-0.3-0.6-0.9-0.4-1.4c0.3-0.5,0.9-0.6,1.4-0.4c0.9,0.5,3,0.5,3.9,0
		c0.5-0.3,1.1-0.1,1.4,0.4c0.3,0.5,0.1,1.1-0.4,1.4C497.1,327.2,496,327.4,494.9,327.4z"/>
</g>
<g>
	<path class="st0" d="M584.9,324.4c-2.4,0-4.2-1.1-4.2-2.5s1.8-2.5,4.2-2.5s4.2,1.1,4.2,2.5S587.3,324.4,584.9,324.4z M582.8,321.9
		c0.3,0.2,1,0.5,2.1,0.5s1.8-0.3,2.1-0.5c-0.3-0.2-1-0.5-2.1-0.5S583.1,321.7,582.8,321.9z"/>
</g>
<g>
	<path class="st0" d="M584.9,327.4c-1.1,0-2.2-0.2-2.9-0.7c-0.5-0.3-0.6-0.9-0.4-1.4c0.3-0.5,0.9-0.6,1.4-0.4c0.9,0.5,3,0.5,3.9,0
		c0.5-0.3,1.1-0.1,1.4,0.4c0.3,0.5,0.1,1.1-0.4,1.4C587.1,327.2,586,327.4,584.9,327.4z"/>
</g>
<g>
	<g>
		<path class="st0" d="M670.4,332.5c-0.5,0-0.9-0.4-1-0.9c0-0.5,0.3-0.9,0.7-1.1c0.2-0.4,0.3-1.4,0.2-2.3c-0.1-0.6-0.1-1.5-0.1-2.5
			s0-1.9,0.1-2.5c0.1-0.5,0.6-0.9,1.1-0.9c0.5,0.1,0.9,0.6,0.9,1.1c-0.1,0.6-0.1,1.4-0.1,2.3c0,0.9,0,1.7,0.1,2.3
			C672.4,329.3,672.4,332.3,670.4,332.5C670.5,332.5,670.4,332.5,670.4,332.5z"/>
	</g>
	<g>
		<path class="st0" d="M679.4,332.5C679.4,332.5,679.3,332.5,679.4,332.5c-2-0.2-2-3.2-1.9-4.4c0.1-0.6,0.1-1.4,0.1-2.3
			c0-0.9,0-1.7-0.1-2.3c-0.1-0.5,0.3-1,0.9-1.1c0.5-0.1,1,0.3,1.1,0.9c0.1,0.6,0.1,1.5,0.1,2.5s0,1.9-0.1,2.5
			c-0.1,0.9,0,1.9,0.2,2.3c0.5,0.1,0.8,0.6,0.7,1.1C680.3,332.1,679.9,332.5,679.4,332.5z"/>
	</g>
</g>
<g>
	<path class="st0" d="M678,324.3c-0.6,0-1-0.4-1-1c0-0.3-0.8-0.8-2.1-0.8s-2.1,0.6-2.1,0.8c0,0.6-0.4,1-1,1s-1-0.4-1-1
		c0-1.6,1.8-2.8,4.1-2.8s4.1,1.3,4.1,2.8C679,323.8,678.5,324.3,678,324.3z"/>
</g>
</svg>
